<svg xmlns="http://www.w3.org/2000/svg" width="96" height="90" fill="none"><g fill-rule="evenodd" clip-path="url(#clip0)" clip-rule="evenodd"><path fill="url(#paint0_linear)" d="M49.58 6.129c15.568 5.927 46.242 26.456 46.278 35.917 2.395 7.096-25.99 35.562-53.575 44.92-8.584 2.911-16.78 4.472-23.575 1.218L36.63 1.932c3.95.642 8.119 2.357 12.95 4.197z"/><path fill="url(#paint1_linear)" d="M44.032 4.77c15.01 5.92 44.583 26.42 44.618 35.869 2.31 7.086-25.057 35.514-51.653 44.858-12.878 4.524-24.85 5.785-32.234-9.26C1.208 68.992-.71 58.539.243 44.847 2 27.096 7.662 13.713 17.488 4.996 26.34-2.856 33.577.647 44.032 4.77z"/><path fill="url(#paint2_linear)" d="M52.114 6.54c13.319 5.365 39.561 23.946 39.593 32.509 2.049 6.423-22.236 32.188-45.836 40.657-4.649 1.668-9.165 2.847-13.328 2.74l-3.984-75.7c7.855-7.118 14.277-3.943 23.555-.206z"/><path fill="url(#paint3_linear)" d="M47.123 4.167c11.494 4.933 32.93 20.7 37.463 30.32L30.4 82.379c-6.794.562-12.775-2.038-17.002-11.414-3.054-6.772-4.7-16.542-3.882-29.34 1.51-16.59 6.371-29.098 14.81-37.246 7.602-7.34 13.819-4.066 22.798-.212z"/><path fill="url(#paint4_linear)" d="M49.933 9.383c12.696 5.164 37.709 23.05 37.739 31.292 1.953 6.182-21.194 30.982-43.689 39.134-10.892 3.947-21.019 5.047-27.264-8.078-3.007-6.32-4.628-15.44-3.823-27.385 1.487-15.486 6.275-27.16 14.586-34.765 7.487-6.85 13.608-3.794 22.451-.198z"/><path fill="#fff" d="M57.11 49.313l-4.503 9.653a2.552 2.552 0 01-2.59 1.472 2.557 2.557 0 01-2.236-1.971l-2.255-9.556c-.296.558-.594 1.116-.896 1.67-1.063 1.95-2.18 3.947-3.568 5.682-2.051 2.563-4.677 4.832-7.852 5.817-2.618.812-5.35.65-7.813-.576-3.919-1.95-6.268-6.101-6.569-10.407-.373-5.328 2.313-10.12 6.34-13.424 1.68-1.377 3.548-2.392 5.484-3.352 1.556-.771 3.184-1.513 4.617-2.502 2.162-1.49 3.333-3.267 3.987-5.809.504-1.96.619-4.066.582-6.084-.058-3.165-.492-6.34-1.054-9.452a2.582 2.582 0 012.069-3 2.573 2.573 0 012.986 2.08c.612 3.386 1.073 6.831 1.136 10.277.045 2.497-.121 5.046-.745 7.47-.964 3.749-2.867 6.575-6.053 8.773-.666.459-1.36.875-2.069 1.264-2.54 1.395-5.434 2.483-7.69 4.333-2.717 2.229-4.72 5.43-4.465 9.065.172 2.463 1.456 5.015 3.725 6.144 1.282.638 2.658.69 4.015.27 2.14-.665 3.988-2.4 5.365-4.12 1.186-1.483 2.157-3.262 3.066-4.928.796-1.46 1.557-2.94 2.348-4.402.617-1.14 1.257-2.378 2.087-3.375a2.542 2.542 0 012.56-.857 2.553 2.553 0 011.91 1.916l2.052 8.69 4.311-9.243a2.557 2.557 0 012.539-1.477c1.078.09 1.97.83 2.262 1.876l6.248 22.423a2.587 2.587 0 01-1.781 3.18 2.573 2.573 0 01-3.166-1.789L57.11 49.313z"/></g><defs><linearGradient id="paint0_linear" x1="18.706" x2="96" y1="45.97" y2="45.97" gradientUnits="userSpaceOnUse"><stop stop-color="#ED1C24"/><stop offset="1" stop-color="#F47216"/></linearGradient><linearGradient id="paint1_linear" x1="65.518" x2="22.973" y1="83.219" y2="5.786" gradientUnits="userSpaceOnUse"><stop stop-color="#2163B6"/><stop offset="1" stop-color="#00ADEF"/></linearGradient><linearGradient id="paint2_linear" x1="86.884" x2="17.844" y1="61.875" y2="23.342" gradientUnits="userSpaceOnUse"><stop stop-color="#ED1C24"/><stop offset="1" stop-color="#F47216"/></linearGradient><linearGradient id="paint3_linear" x1="9.307" x2="84.59" y1="41.226" y2="41.226" gradientUnits="userSpaceOnUse"><stop stop-color="#2163B6"/><stop offset="1" stop-color="#00ADEF"/></linearGradient><linearGradient id="paint4_linear" x1="51.577" x2="48.873" y1="5.516" y2="82.429" gradientUnits="userSpaceOnUse"><stop stop-color="#EC008C"/><stop offset=".458" stop-color="#833184"/><stop offset="1" stop-color="#833184"/></linearGradient><clipPath id="clip0"><path fill="#fff" d="M0 0h96v90H0z"/></clipPath></defs></svg>