<svg xmlns="http://www.w3.org/2000/svg" width="183" height="60" fill="none"><g fill-rule="evenodd" clip-path="url(#clip0)" clip-rule="evenodd"><path fill="url(#paint0_linear)" d="M83.933 12.287v10.29a7.464 7.464 0 01-.609 2.998 7.806 7.806 0 01-1.648 2.446 7.775 7.775 0 01-2.457 1.648 7.544 7.544 0 01-3.01.609 7.464 7.464 0 01-2.998-.609 7.804 7.804 0 01-2.445-1.648 7.808 7.808 0 01-1.649-2.446 7.464 7.464 0 01-.609-2.998c0-1.062.203-2.066.609-3.01a7.778 7.778 0 011.649-2.456 7.807 7.807 0 012.445-1.649 7.46 7.46 0 012.999-.608c.767 0 1.493.103 2.18.31a7.795 7.795 0 011.936.885v-4.802h3.607v1.04zm98.902 10.268a7.142 7.142 0 01-.631 2.954 8.222 8.222 0 01-1.693 2.467 8.159 8.159 0 01-2.479 1.693c-.944.421-1.932.631-2.965.631-1.165 0-2.224-.21-3.175-.63a7.596 7.596 0 01-2.446-1.694 7.509 7.509 0 01-1.571-2.467 7.988 7.988 0 01-.553-2.954c0-1.033.184-2.021.553-2.966a7.484 7.484 0 011.571-2.478 7.6 7.6 0 012.446-1.693c.951-.42 2.01-.63 3.175-.63a7.21 7.21 0 012.965.63c.945.42 1.771.985 2.479 1.693a8.185 8.185 0 011.693 2.478 7.22 7.22 0 01.631 2.966zm-3.608 0c0-.532-.117-1.044-.353-1.538a4.799 4.799 0 00-.941-1.328 4.78 4.78 0 00-1.328-.94 3.526 3.526 0 00-1.538-.355c-.649 0-1.228.118-1.737.355-.509.235-.941.549-1.295.94a4.239 4.239 0 00-.818 1.328 4.212 4.212 0 000 3.065c.191.501.464.944.818 1.327a4.07 4.07 0 001.295.93c.509.236 1.088.354 1.737.354a3.53 3.53 0 001.538-.354 4.905 4.905 0 001.328-.93c.391-.383.704-.826.941-1.327.236-.502.353-1.011.353-1.527zm-18.588-4.094v4.625c0 .531.118 1.018.354 1.46.236.443.531.82.885 1.13.354.309.741.552 1.162.73.42.176.822.265 1.206.265h3.098v3.63h-3.098a6.14 6.14 0 01-2.656-.62 8.28 8.28 0 01-2.323-1.638 8.333 8.333 0 01-1.638-2.313 6.065 6.065 0 01-.62-2.644v-11.84h3.63v3.63h6.705v3.585h-6.705zm-10.8-3.674c.93 0 1.8.177 2.612.531a6.85 6.85 0 012.124 1.439 6.691 6.691 0 011.428 2.124c.346.811.52 1.682.52 2.611v8.764h-3.608v-8.764c0-.427-.081-.83-.243-1.206a3.227 3.227 0 00-.653-.984 2.996 2.996 0 00-.974-.664 3.01 3.01 0 00-1.206-.244c-.427 0-.83.082-1.206.244a3.144 3.144 0 00-.985.664c-.28.28-.501.608-.663.985a3 3 0 00-.244 1.206v8.763h-3.607V14.787H146.741v.775c.472-.251.967-.443 1.483-.576a6.454 6.454 0 011.615-.199zm-7.329 7.768c0 1.032-.21 2.017-.631 2.954a8.186 8.186 0 01-1.693 2.467 8.166 8.166 0 01-2.478 1.693 7.21 7.21 0 01-2.966.631c-1.165 0-2.224-.21-3.175-.63a7.596 7.596 0 01-2.446-1.694 7.509 7.509 0 01-1.571-2.467 7.988 7.988 0 01-.553-2.954c0-1.033.184-2.021.553-2.966a7.484 7.484 0 011.571-2.478 7.6 7.6 0 012.446-1.693c.951-.42 2.01-.63 3.175-.63 1.033 0 2.022.21 2.966.63.944.42 1.77.985 2.478 1.693a8.149 8.149 0 011.693 2.478c.421.945.631 1.933.631 2.966zm-3.607 0a3.53 3.53 0 00-.354-1.538 4.778 4.778 0 00-.941-1.328 4.765 4.765 0 00-1.328-.94 3.523 3.523 0 00-1.538-.355c-.649 0-1.228.118-1.737.355a3.98 3.98 0 00-1.294.94 4.26 4.26 0 00-.819 4.393c.192.501.465.944.819 1.327.354.384.785.694 1.294.93.509.236 1.088.354 1.737.354.532 0 1.044-.118 1.538-.354a4.89 4.89 0 001.328-.93 4.57 4.57 0 00.941-1.327c.236-.502.354-1.011.354-1.527zm-11.972 1.549a7.667 7.667 0 01-.952 2.467 7.63 7.63 0 01-1.693 1.97 7.944 7.944 0 01-2.268 1.305 7.528 7.528 0 01-2.678.476 7.543 7.543 0 01-3.009-.608 7.814 7.814 0 01-2.468-1.66 7.817 7.817 0 01-1.66-2.468 7.608 7.608 0 01-.608-3.031c0-1.063.203-2.066.608-3.01a7.815 7.815 0 011.66-2.467 7.813 7.813 0 012.468-1.66 7.543 7.543 0 013.009-.609c.944 0 1.837.159 2.678.476a7.94 7.94 0 012.268 1.306 7.7 7.7 0 011.693 1.958c.457.753.775 1.572.952 2.457h-3.762a4.143 4.143 0 00-1.494-1.848 3.977 3.977 0 00-2.335-.72 4.134 4.134 0 00-2.932 1.206 4.178 4.178 0 00-.885 1.306 3.994 3.994 0 00-.321 1.605c0 .575.107 1.114.321 1.615a4.133 4.133 0 002.202 2.202c.501.214 1.04.32 1.615.32.871 0 1.649-.239 2.335-.718a4.124 4.124 0 001.494-1.87h3.762zm-16.436 3.614a4.775 4.775 0 01-2.231 2.106 4.683 4.683 0 01-1.781.432h-5.665v-3.607h5.51a1.13 1.13 0 00.786-.355c.214-.22.321-.486.321-.796 0-.325-.115-.598-.344-.819a1.147 1.147 0 00-.829-.332h-.819v-.022a4.541 4.541 0 01-1.815-.41 4.803 4.803 0 01-2.445-2.522 4.575 4.575 0 01-.365-1.826c0-.383.048-.76.144-1.128a5.26 5.26 0 01.387-1.04l.082-.052c.21-.397.471-.756.781-1.077.413-.428.896-.77 1.449-1.03a4.688 4.688 0 011.782-.43h5.665v3.607h-5.51a1.13 1.13 0 00-.786.353 1.106 1.106 0 00-.321.797c0 .325.115.598.343.819.229.221.506.332.83.332h.819v.022a4.541 4.541 0 011.815.41 4.8 4.8 0 012.445 2.522c.243.568.365 1.177.365 1.826 0 .384-.048.76-.144 1.129a5.324 5.324 0 01-.387 1.04l-.082.051zm-10.287-3.636a7.52 7.52 0 01-.963 2.467 7.92 7.92 0 01-1.693 1.97 7.682 7.682 0 01-4.935 1.76 7.52 7.52 0 01-3.02-.61 7.85 7.85 0 01-2.457-1.66c-.7-.7-1.254-1.519-1.66-2.456a7.517 7.517 0 01-.608-3.02c0-1.078.203-2.084.609-3.021a7.85 7.85 0 011.66-2.456c.7-.701 1.519-1.255 2.456-1.66a7.518 7.518 0 013.02-.609c.797 0 1.557.115 2.28.343.723.229 1.39.55 2.003.963a7.965 7.965 0 011.637 1.471c.48.569.867 1.192 1.162 1.87.074.163.133.31.177.443l-.354.598-1.284 2.057h-4.802l1.903-3.076a4.025 4.025 0 00-1.25-.785 3.952 3.952 0 00-1.472-.277c-.575 0-1.113.107-1.615.321a4.14 4.14 0 00-2.202 2.202 4.074 4.074 0 00-.32 1.615c0 .576.106 1.114.32 1.616a4.138 4.138 0 002.202 2.202c.502.214 1.04.32 1.615.32.87 0 1.649-.243 2.335-.73a4.213 4.213 0 001.494-1.858h3.762zM76.21 26.67c.575 0 1.11-.107 1.604-.321.494-.214.93-.505 1.306-.874s.67-.804.885-1.306c.214-.501.32-1.033.32-1.593 0-.576-.106-1.11-.32-1.605a4.173 4.173 0 00-2.191-2.19 3.992 3.992 0 00-1.604-.321c-.561 0-1.092.107-1.594.32a4.01 4.01 0 00-1.305.886c-.37.376-.66.811-.875 1.305a3.997 3.997 0 00-.32 1.605 4.1 4.1 0 001.195 2.9 4.102 4.102 0 002.899 1.194z"/><path fill="url(#paint1_linear)" d="M161.26 41.03v7.7h-3.607v-1.194a7.743 7.743 0 01-1.948.885 7.55 7.55 0 01-2.168.31 7.54 7.54 0 01-3.01-.609 7.92 7.92 0 01-2.468-1.648 7.682 7.682 0 01-1.659-2.457 7.537 7.537 0 01-.609-3.01c0-1.062.203-2.065.609-3.009a7.813 7.813 0 011.659-2.467 7.825 7.825 0 012.468-1.66 7.543 7.543 0 013.01-.609c1.062 0 2.065.203 3.009.609a7.698 7.698 0 012.457 1.66 7.902 7.902 0 011.648 2.467c.406.944.609 1.947.609 3.01v.022zm-51.673-1.572v9.295h-3.607v-9.029c0-.354-.07-.69-.21-1.007a2.68 2.68 0 00-.553-.819 2.68 2.68 0 00-.819-.553 2.466 2.466 0 00-1.007-.21c-.354 0-.69.07-1.007.21a2.68 2.68 0 00-.819.553 2.68 2.68 0 00-.553.82c-.14.316-.21.652-.21 1.006v9.029h-3.607v-9.029c0-.354-.07-.69-.21-1.007a2.672 2.672 0 00-.554-.819 2.673 2.673 0 00-.819-.553 2.466 2.466 0 00-1.007-.21c-.354 0-.69.07-1.007.21-.317.14-.59.325-.818.553a2.67 2.67 0 00-.553.82c-.14.316-.21.652-.21 1.006v9.029h-3.608V33.262H92.016v.841a5.98 5.98 0 012.59-.575c.87 0 1.681.162 2.434.487a6.267 6.267 0 011.97 1.327 6.306 6.306 0 011.958-1.327 5.997 5.997 0 012.423-.487c.826 0 1.608.155 2.346.465.737.31 1.383.73 1.936 1.261a6.29 6.29 0 011.339 1.881c.339.723.524 1.498.553 2.324h.022zm15.756 1.572v7.7h-3.607v-1.194a7.752 7.752 0 01-1.947.885 7.556 7.556 0 01-2.169.31 7.548 7.548 0 01-3.01-.609 7.915 7.915 0 01-2.467-1.648 7.684 7.684 0 01-1.66-2.457 7.554 7.554 0 01-.608-3.01c0-1.062.203-2.065.608-3.009a7.816 7.816 0 011.66-2.467 7.82 7.82 0 012.467-1.66 7.55 7.55 0 013.01-.609c1.062 0 2.066.203 3.01.609a7.683 7.683 0 012.456 1.66 7.922 7.922 0 011.649 2.467c.405.944.608 1.947.608 3.01v.022zm-7.723 4.094c.561 0 1.092-.107 1.593-.321a4.131 4.131 0 001.317-.885c.376-.377.671-.812.885-1.306.214-.494.321-1.029.321-1.604 0-.576-.107-1.114-.321-1.616a4.142 4.142 0 00-2.19-2.202 4 4 0 00-1.605-.32c-.575 0-1.11.106-1.604.32a4.163 4.163 0 00-2.191 2.202 4.073 4.073 0 00-.321 1.616c0 .56.107 1.091.321 1.593a4.143 4.143 0 002.191 2.202c.494.214 1.029.32 1.604.32zm15.27-11.884c.929 0 1.799.177 2.611.531a6.849 6.849 0 012.124 1.439 6.693 6.693 0 011.428 2.124c.346.812.52 1.682.52 2.611v8.764h-3.607v-8.764a3 3 0 00-.244-1.206 3.225 3.225 0 00-.653-.984 3.003 3.003 0 00-.973-.664 3.016 3.016 0 00-1.206-.244c-.428 0-.83.081-1.206.244a3.121 3.121 0 00-1.649 1.648 3.017 3.017 0 00-.244 1.207V48.709h-3.607V33.24H129.791v.775c.472-.251.967-.443 1.483-.576a6.456 6.456 0 011.616-.199zm11.684 15.513h-3.607V37.942h3.607v10.811zm-3.607-11.918v-3.607h3.607v3.607h-3.607zm12.57 8.289c.56 0 1.091-.107 1.593-.321a4.153 4.153 0 002.202-2.19c.214-.495.321-1.03.321-1.605 0-.576-.107-1.114-.321-1.616a4.142 4.142 0 00-2.191-2.202 3.992 3.992 0 00-1.604-.32c-.576 0-1.111.106-1.605.32a4.142 4.142 0 00-2.191 2.202 4.073 4.073 0 00-.321 1.616c0 .56.107 1.091.321 1.593a4.143 4.143 0 002.191 2.202c.494.214 1.029.32 1.605.32z"/><path fill="url(#paint2_linear)" d="M29.486 3.18C39.537 7.126 59.34 20.794 59.364 27.093c1.547 4.724-16.78 23.675-34.589 29.905-8.624 3.016-16.641 3.857-21.586-6.173C.81 45.995-.475 39.026.163 29.897 1.34 18.065 5.13 9.143 11.71 3.332c5.928-5.236 10.774-2.9 17.776-.152zm3.952 3.076c8.501 3.442 25.251 15.365 25.271 20.86 1.308 4.122-14.192 20.655-29.256 26.09-7.294 2.631-14.075 3.365-18.257-5.386-2.014-4.213-3.1-10.293-2.56-18.256.996-10.324 4.202-18.107 9.767-23.176 5.014-4.568 9.113-2.53 15.035-.132z"/><path fill="url(#paint3_linear)" d="M33.2 4.086c10.426 3.951 30.967 17.638 30.991 23.945 1.604 4.73-17.404 23.708-35.876 29.946-5.749 1.941-11.238 2.982-15.787.812 3.719.694 7.906-.273 12.247-1.791 17.81-6.23 36.136-25.181 34.59-29.905-.025-6.3-19.828-19.967-29.88-23.913-1.772-.696-3.407-1.365-4.956-1.892 2.645.428 5.437 1.572 8.672 2.798z"/><path fill="url(#paint4_linear)" d="M33.438 6.256c8.501 3.442 25.251 15.365 25.271 20.86 1.308 4.122-14.192 20.655-29.256 26.09-7.294 2.631-14.075 3.365-18.257-5.386-2.014-4.213-3.1-10.293-2.56-18.256.996-10.324 4.202-18.107 9.767-23.176 5.014-4.568 9.113-2.53 15.035-.132z"/><path fill="url(#paint5_linear)" d="M34.898 4.36c8.92 3.577 26.492 15.964 26.513 21.673 1.372 4.282-14.89 21.458-30.694 27.104-3.113 1.112-6.137 1.898-8.925 1.827 2.457-.06 5.092-.774 7.798-1.75 14.993-5.41 30.421-21.865 29.12-25.968-.02-5.47-16.692-17.337-25.154-20.764-5.894-2.386-9.974-4.414-14.965.132-5.54 5.046-8.73 12.793-9.721 23.068a58.865 58.865 0 00-.135 3.465 59.441 59.441 0 01.142-4.572C9.922 17.85 13.285 9.765 19.124 4.497c5.26-4.745 9.56-2.628 15.774-.137z"/><path fill="url(#paint6_linear)" d="M31.556 2.778c7.697 3.289 22.05 13.8 25.087 20.213-4.727-5.916-16.44-13.817-23.087-16.509-5.894-2.386-9.974-4.414-14.965.132-5.539 5.046-8.73 12.793-9.721 23.068-.537 7.927.543 13.978 2.548 18.172 2.304 4.821 5.401 6.749 8.939 7.066-4.55.374-8.555-1.36-11.386-7.61-2.045-4.514-3.147-11.028-2.6-19.56C7.384 16.69 10.639 8.351 16.29 2.92c5.091-4.894 9.254-2.711 15.267-.142"/><path fill="#fff" d="M38.243 32.875l-3.015 6.436a1.71 1.71 0 01-1.734.981 1.71 1.71 0 01-1.497-1.314l-1.51-6.371c-.2.372-.398.744-.6 1.114-.713 1.3-1.46 2.63-2.39 3.788-1.374 1.708-3.132 3.221-5.258 3.878-1.753.541-3.582.434-5.232-.384-2.624-1.3-4.197-4.068-4.399-6.938-.25-3.552 1.55-6.747 4.246-8.95 1.125-.918 2.376-1.594 3.672-2.234 1.042-.515 2.132-1.009 3.092-1.668 1.447-.994 2.232-2.179 2.67-3.873.337-1.307.414-2.711.39-4.056-.04-2.11-.33-4.227-.707-6.301a1.722 1.722 0 011.386-2c.933-.17 1.83.452 2 1.386.41 2.258.718 4.555.76 6.852.03 1.664-.08 3.363-.498 4.98-.646 2.499-1.92 4.383-4.054 5.848-.446.306-.91.583-1.385.843-1.702.93-3.64 1.655-5.15 2.889-1.82 1.485-3.16 3.62-2.99 6.043.116 1.642.975 3.343 2.495 4.096.858.426 1.78.46 2.688.18 1.434-.443 2.67-1.6 3.593-2.747.794-.989 1.444-2.174 2.053-3.285.533-.973 1.043-1.96 1.573-2.935.412-.76.841-1.585 1.397-2.25a1.706 1.706 0 011.715-.571c.64.15 1.127.637 1.279 1.277l1.373 5.794 2.887-6.162a1.713 1.713 0 011.7-.985 1.71 1.71 0 011.515 1.25l4.184 14.95a1.724 1.724 0 01-1.193 2.12 1.724 1.724 0 01-2.12-1.193l-2.936-10.488z"/></g><defs><linearGradient id="paint0_linear" x1="125.724" x2="125.619" y1="11.243" y2="30.329" gradientUnits="userSpaceOnUse"><stop stop-color="#EC008C"/><stop offset=".458" stop-color="#833184"/><stop offset="1" stop-color="#833184"/></linearGradient><linearGradient id="paint1_linear" x1="124.893" x2="124.777" y1="33.224" y2="48.758" gradientUnits="userSpaceOnUse"><stop stop-color="#EC008C"/><stop offset=".458" stop-color="#833184"/><stop offset="1" stop-color="#833184"/></linearGradient><linearGradient id="paint2_linear" x1="43.875" x2="15.579" y1="55.478" y2="3.75" gradientUnits="userSpaceOnUse"><stop stop-color="#2163B6"/><stop offset="1" stop-color="#00ADEF"/></linearGradient><linearGradient id="paint3_linear" x1="12.527" x2="64.287" y1="30.645" y2="30.645" gradientUnits="userSpaceOnUse"><stop stop-color="#ED1C24"/><stop offset="1" stop-color="#F47216"/></linearGradient><linearGradient id="paint4_linear" x1="34.54" x2="32.745" y1="3.681" y2="54.952" gradientUnits="userSpaceOnUse"><stop stop-color="#EC008C"/><stop offset=".458" stop-color="#833184"/><stop offset="1" stop-color="#833184"/></linearGradient><linearGradient id="paint5_linear" x1="58.178" x2="12.043" y1="41.249" y2="15.384" gradientUnits="userSpaceOnUse"><stop stop-color="#ED1C24"/><stop offset="1" stop-color="#F47216"/></linearGradient><linearGradient id="paint6_linear" x1="6.234" x2="56.641" y1="27.483" y2="27.483" gradientUnits="userSpaceOnUse"><stop stop-color="#2163B6"/><stop offset="1" stop-color="#00ADEF"/></linearGradient><clipPath id="clip0"><path fill="#fff" d="M0 0h182.835v60H0z"/></clipPath></defs></svg>