<?xml version="1.0" encoding="UTF-8" standalone="no"?>
<!-- Created with Inkscape (http://www.inkscape.org/) -->

<svg
   xmlns:dc="http://purl.org/dc/elements/1.1/"
   xmlns:cc="http://creativecommons.org/ns#"
   xmlns:rdf="http://www.w3.org/1999/02/22-rdf-syntax-ns#"
   xmlns:svg="http://www.w3.org/2000/svg"
   xmlns="http://www.w3.org/2000/svg"
   xmlns:xlink="http://www.w3.org/1999/xlink"
   xmlns:sodipodi="http://sodipodi.sourceforge.net/DTD/sodipodi-0.dtd"
   xmlns:inkscape="http://www.inkscape.org/namespaces/inkscape"
   width="21.166666mm"
   height="19.755474mm"
   viewBox="0 0 21.166666 19.755474"
   version="1.1"
   id="svg3531"
   inkscape:export-filename="/home/jezmael/Documentos/Baita Soluções/Propostas de Serviços/2021/Desconto Mania/favico.png"
   inkscape:export-xdpi="96.000008"
   inkscape:export-ydpi="96.000008"
   inkscape:version="0.92.5 (2060ec1f9f, 2020-04-08)"
   sodipodi:docname="logo.svg">
  <defs
     id="defs3525">
    <clipPath
       id="clipPath1098"
       clipPathUnits="userSpaceOnUse">
      <path
         style="clip-rule:evenodd"
         inkscape:connector-curvature="0"
         id="path1096"
         d="m 415.8802,222.6716 c 19.101,-7.4987 56.7332,-33.4712 56.7785,-45.441 2.9387,-8.9774 -31.8863,-44.9918 -65.7306,-56.8296 -16.3882,-5.7322 -31.6238,-7.3295 -41.0193,11.7309 -4.5246,9.1789 -6.963,22.4212 -5.752,39.7681 2.2373,22.4872 9.441,39.4407 21.9444,50.4836 11.2646,9.9491 20.474,5.5114 33.779,0.288 z m 7.5098,-5.8445 c 16.1553,-6.5417 47.9852,-29.1996 48.0235,-39.6422 2.4854,-7.8321 -26.9694,-39.2505 -55.5951,-49.5779 -13.8611,-5.0009 -26.748,-6.3941 -34.6949,10.2339 -3.8265,8.0076 -5.8893,19.5599 -4.8645,34.6932 1.8924,19.6183 7.9846,34.4081 18.5604,44.0422 9.5275,8.6797 17.3174,4.8075 28.5706,0.2508" />
    </clipPath>
    <linearGradient
       id="linearGradient1104"
       spreadMethod="pad"
       gradientUnits="userSpaceOnUse"
       y2="221.59"
       x2="389.45999"
       y1="123.29"
       x1="443.22">
      <stop
         id="stop1100"
         offset="0"
         style="stop-opacity:1;stop-color:#2163b6" />
      <stop
         id="stop1102"
         offset="1"
         style="stop-opacity:1;stop-color:#00adef" />
    </linearGradient>
    <clipPath
       id="clipPath1114"
       clipPathUnits="userSpaceOnUse">
      <path
         style="clip-rule:evenodd"
         inkscape:connector-curvature="0"
         id="path1112"
         d="m 422.9399,220.9504 c 19.8113,-7.509 58.8444,-33.5171 58.8912,-45.5028 3.0481,-8.9901 -33.0732,-45.053 -68.1766,-56.9073 -10.9239,-3.689 -21.354,-5.6667 -29.9999,-1.5437 7.0673,-1.3173 15.0241,0.519 23.2735,3.4044 33.8443,11.8381 68.6693,47.8522 65.7306,56.8298 -0.0453,11.9696 -37.6775,37.9421 -56.7785,45.4408 -3.369,1.3227 -6.4752,2.5943 -9.4187,3.5955 5.0259,-0.8136 10.3306,-2.9866 16.4784,-5.3167" />
    </clipPath>
    <linearGradient
       id="linearGradient1120"
       spreadMethod="pad"
       gradientUnits="userSpaceOnUse"
       y2="170.48"
       x2="482.01001"
       y1="170.48"
       x1="383.64999">
      <stop
         id="stop1116"
         offset="0"
         style="stop-opacity:1;stop-color:#ed1c24" />
      <stop
         id="stop1118"
         offset="1"
         style="stop-opacity:1;stop-color:#f47216" />
    </linearGradient>
    <clipPath
       id="clipPath1130"
       clipPathUnits="userSpaceOnUse">
      <path
         style="clip-rule:evenodd"
         inkscape:connector-curvature="0"
         id="path1128"
         d="m 423.39,216.8271 c 16.1555,-6.5417 47.9855,-29.1999 48.0235,-39.6422 2.4854,-7.8321 -26.9697,-39.2508 -55.5951,-49.5779 -13.8611,-5.0006 -26.7477,-6.3941 -34.6946,10.2342 -3.8271,8.0073 -5.8896,19.5596 -4.8648,34.6929 1.8921,19.6183 7.9849,34.4081 18.5604,44.0422 9.5278,8.6794 17.3171,4.8075 28.5706,0.2508" />
    </clipPath>
    <linearGradient
       id="linearGradient1138"
       spreadMethod="pad"
       gradientUnits="userSpaceOnUse"
       y2="124.29"
       x2="422.07001"
       y1="221.72"
       x1="425.48001">
      <stop
         id="stop1132"
         offset="0"
         style="stop-opacity:1;stop-color:#ec008c" />
      <stop
         id="stop1134"
         offset="0.45787546"
         style="stop-opacity:1;stop-color:#833184" />
      <stop
         id="stop1136"
         offset="1"
         style="stop-opacity:1;stop-color:#833184" />
    </linearGradient>
    <clipPath
       id="clipPath1148"
       clipPathUnits="userSpaceOnUse">
      <path
         style="clip-rule:evenodd"
         inkscape:connector-curvature="0"
         id="path1146"
         d="m 426.1646,220.4294 c 16.9492,-6.7966 50.3439,-30.3364 50.3838,-41.1848 2.6076,-8.1372 -28.2954,-40.7781 -58.3276,-51.5072 -5.9165,-2.1138 -11.6634,-3.6068 -16.9614,-3.4714 4.6687,0.1146 9.6761,1.4701 14.8187,3.3254 28.4919,10.2792 57.81,41.5513 55.3362,49.3472 -0.038,10.3935 -31.7199,32.9459 -47.8,39.4574 -11.2009,4.5354 -18.9542,8.3891 -28.4375,-0.2497 -10.5262,-9.5894 -16.5906,-24.31 -18.4739,-43.837 -0.1545,-2.2765 -0.2379,-4.4711 -0.256,-6.5849 -0.0244,2.7582 0.0624,5.6535 0.2699,8.6882 1.9853,20.3817 8.3775,35.7469 19.4728,45.756 9.9961,9.017 18.1684,4.9947 29.975,0.2608" />
    </clipPath>
    <linearGradient
       id="linearGradient1154"
       spreadMethod="pad"
       gradientUnits="userSpaceOnUse"
       y2="199.48"
       x2="382.73999"
       y1="150.33"
       x1="470.41">
      <stop
         id="stop1150"
         offset="0"
         style="stop-opacity:1;stop-color:#ed1c24" />
      <stop
         id="stop1152"
         offset="1"
         style="stop-opacity:1;stop-color:#f47216" />
    </linearGradient>
    <clipPath
       id="clipPath1164"
       clipPathUnits="userSpaceOnUse">
      <path
         style="clip-rule:evenodd"
         inkscape:connector-curvature="0"
         id="path1162"
         d="m 419.8133,223.4358 c 14.6268,-6.2492 41.9043,-26.2244 47.6742,-38.4111 -8.9841,11.2425 -31.2412,26.2562 -43.8732,31.3713 -11.2009,4.5354 -18.9542,8.3891 -28.4375,-0.2497 -10.5262,-9.5894 -16.5906,-24.31 -18.4739,-43.837 -1.0199,-15.063 1.0329,-26.5615 4.8421,-34.5316 4.3787,-9.1619 10.2645,-12.8257 16.9869,-13.4275 -8.6462,-0.7112 -16.2564,2.5824 -21.6366,14.4604 -3.8857,8.5794 -5.9802,20.9563 -4.9399,37.1702 1.9216,21.0186 8.1085,36.864 18.847,47.1858 9.6744,9.299 17.5844,5.1511 29.0109,0.2692" />
    </clipPath>
    <linearGradient
       id="linearGradient1170"
       spreadMethod="pad"
       gradientUnits="userSpaceOnUse"
       y2="176.49001"
       x2="467.48999"
       y1="176.49001"
       x1="371.69">
      <stop
         id="stop1166"
         offset="0"
         style="stop-opacity:1;stop-color:#2163b6" />
      <stop
         id="stop1168"
         offset="1"
         style="stop-opacity:1;stop-color:#00adef" />
    </linearGradient>
    <linearGradient
       inkscape:collect="always"
       xlink:href="#linearGradient1104"
       id="linearGradient4268"
       gradientUnits="userSpaceOnUse"
       x1="443.22"
       y1="123.29"
       x2="389.45999"
       y2="221.59"
       spreadMethod="pad" />
    <linearGradient
       inkscape:collect="always"
       xlink:href="#linearGradient1120"
       id="linearGradient4270"
       gradientUnits="userSpaceOnUse"
       x1="383.64999"
       y1="170.48"
       x2="482.01001"
       y2="170.48"
       spreadMethod="pad" />
    <linearGradient
       inkscape:collect="always"
       xlink:href="#linearGradient1138"
       id="linearGradient4272"
       gradientUnits="userSpaceOnUse"
       x1="425.48001"
       y1="221.72"
       x2="422.07001"
       y2="124.29"
       spreadMethod="pad" />
    <linearGradient
       inkscape:collect="always"
       xlink:href="#linearGradient1154"
       id="linearGradient4274"
       gradientUnits="userSpaceOnUse"
       x1="470.41"
       y1="150.33"
       x2="382.73999"
       y2="199.48"
       spreadMethod="pad" />
    <linearGradient
       inkscape:collect="always"
       xlink:href="#linearGradient1170"
       id="linearGradient4276"
       gradientUnits="userSpaceOnUse"
       x1="371.69"
       y1="176.49001"
       x2="467.48999"
       y2="176.49001"
       spreadMethod="pad" />
  </defs>
  <sodipodi:namedview
     id="base"
     pagecolor="#ffffff"
     bordercolor="#666666"
     borderopacity="1.0"
     inkscape:pageopacity="0.0"
     inkscape:pageshadow="2"
     inkscape:zoom="1"
     inkscape:cx="98.766322"
     inkscape:cy="-29.702409"
     inkscape:document-units="mm"
     inkscape:current-layer="layer1"
     showgrid="false"
     fit-margin-top="0"
     fit-margin-left="0"
     fit-margin-right="0"
     fit-margin-bottom="0"
     inkscape:window-width="2560"
     inkscape:window-height="1015"
     inkscape:window-x="1366"
     inkscape:window-y="0"
     inkscape:window-maximized="1" />
  <metadata
     id="metadata3528">
    <rdf:RDF>
      <cc:Work
         rdf:about="">
        <dc:format>image/svg+xml</dc:format>
        <dc:type
           rdf:resource="http://purl.org/dc/dcmitype/StillImage" />
        <dc:title></dc:title>
      </cc:Work>
    </rdf:RDF>
  </metadata>
  <g
     inkscape:label="Camada 1"
     inkscape:groupmode="layer"
     id="layer1"
     transform="translate(-35.435262,-53.643889)">
    <g
       id="g4266"
       transform="matrix(0.17326495,0,0,-0.17326495,-26.91376,93.272141)"
       inkscape:export-xdpi="717"
       inkscape:export-ydpi="717">
      <g
         id="g4238">
        <g
           id="g4236"
           clip-path="url(#clipPath1098)">
          <path
             d="m 415.8802,222.6716 c 19.101,-7.4987 56.7332,-33.4712 56.7785,-45.441 2.9387,-8.9774 -31.8863,-44.9918 -65.7306,-56.8296 -16.3882,-5.7322 -31.6238,-7.3295 -41.0193,11.7309 -4.5246,9.1789 -6.963,22.4212 -5.752,39.7681 2.2373,22.4872 9.441,39.4407 21.9444,50.4836 11.2646,9.9491 20.474,5.5114 33.779,0.288 z m 7.5098,-5.8445 c 16.1553,-6.5417 47.9852,-29.1996 48.0235,-39.6422 2.4854,-7.8321 -26.9694,-39.2505 -55.5951,-49.5779 -13.8611,-5.0009 -26.748,-6.3941 -34.6949,10.2339 -3.8265,8.0076 -5.8893,19.5599 -4.8645,34.6932 1.8924,19.6183 7.9846,34.4081 18.5604,44.0422 9.5275,8.6797 17.3174,4.8075 28.5706,0.2508"
             style="fill:url(#linearGradient4268);fill-rule:evenodd;stroke:none"
             id="path4234"
             inkscape:connector-curvature="0" />
        </g>
      </g>
      <g
         id="g4244">
        <g
           id="g4242"
           clip-path="url(#clipPath1114)">
          <path
             d="m 422.9399,220.9504 c 19.8113,-7.509 58.8444,-33.5171 58.8912,-45.5028 3.0481,-8.9901 -33.0732,-45.053 -68.1766,-56.9073 -10.9239,-3.689 -21.354,-5.6667 -29.9999,-1.5437 7.0673,-1.3173 15.0241,0.519 23.2735,3.4044 33.8443,11.8381 68.6693,47.8522 65.7306,56.8298 -0.0453,11.9696 -37.6775,37.9421 -56.7785,45.4408 -3.369,1.3227 -6.4752,2.5943 -9.4187,3.5955 5.0259,-0.8136 10.3306,-2.9866 16.4784,-5.3167"
             style="fill:url(#linearGradient4270);fill-rule:evenodd;stroke:none"
             id="path4240"
             inkscape:connector-curvature="0" />
        </g>
      </g>
      <g
         id="g4250">
        <g
           id="g4248"
           clip-path="url(#clipPath1130)">
          <path
             d="m 423.39,216.8271 c 16.1555,-6.5417 47.9855,-29.1999 48.0235,-39.6422 2.4854,-7.8321 -26.9697,-39.2508 -55.5951,-49.5779 -13.8611,-5.0006 -26.7477,-6.3941 -34.6946,10.2342 -3.8271,8.0073 -5.8896,19.5596 -4.8648,34.6929 1.8921,19.6183 7.9849,34.4081 18.5604,44.0422 9.5278,8.6794 17.3171,4.8075 28.5706,0.2508"
             style="fill:url(#linearGradient4272);fill-rule:evenodd;stroke:none"
             id="path4246"
             inkscape:connector-curvature="0" />
        </g>
      </g>
      <g
         id="g4256">
        <g
           id="g4254"
           clip-path="url(#clipPath1148)">
          <path
             d="m 426.1646,220.4294 c 16.9492,-6.7966 50.3439,-30.3364 50.3838,-41.1848 2.6076,-8.1372 -28.2954,-40.7781 -58.3276,-51.5072 -5.9165,-2.1138 -11.6634,-3.6068 -16.9614,-3.4714 4.6687,0.1146 9.6761,1.4701 14.8187,3.3254 28.4919,10.2792 57.81,41.5513 55.3362,49.3472 -0.038,10.3935 -31.7199,32.9459 -47.8,39.4574 -11.2009,4.5354 -18.9542,8.3891 -28.4375,-0.2497 -10.5262,-9.5894 -16.5906,-24.31 -18.4739,-43.837 -0.1545,-2.2765 -0.2379,-4.4711 -0.256,-6.5849 -0.0244,2.7582 0.0624,5.6535 0.2699,8.6882 1.9853,20.3817 8.3775,35.7469 19.4728,45.756 9.9961,9.017 18.1684,4.9947 29.975,0.2608"
             style="fill:url(#linearGradient4274);fill-rule:evenodd;stroke:none"
             id="path4252"
             inkscape:connector-curvature="0" />
        </g>
      </g>
      <g
         id="g4262">
        <g
           id="g4260"
           clip-path="url(#clipPath1164)">
          <path
             d="m 419.8133,223.4358 c 14.6268,-6.2492 41.9043,-26.2244 47.6742,-38.4111 -8.9841,11.2425 -31.2412,26.2562 -43.8732,31.3713 -11.2009,4.5354 -18.9542,8.3891 -28.4375,-0.2497 -10.5262,-9.5894 -16.5906,-24.31 -18.4739,-43.837 -1.0199,-15.063 1.0329,-26.5615 4.8421,-34.5316 4.3787,-9.1619 10.2645,-12.8257 16.9869,-13.4275 -8.6462,-0.7112 -16.2564,2.5824 -21.6366,14.4604 -3.8857,8.5794 -5.9802,20.9563 -4.9399,37.1702 1.9216,21.0186 8.1085,36.864 18.847,47.1858 9.6744,9.299 17.5844,5.1511 29.0109,0.2692"
             style="fill:url(#linearGradient4276);fill-rule:evenodd;stroke:none"
             id="path4258"
             inkscape:connector-curvature="0" />
        </g>
      </g>
      <path
         d="m 432.5221,166.2415 -5.7299,-12.2298 c -0.5942,-1.2677 -1.9026,-2.0084 -3.2953,-1.8646 -1.3935,0.1437 -2.5228,1.1347 -2.846,2.4976 l -2.8698,12.1064 c -0.3767,-0.7075 -0.7554,-1.4142 -1.1406,-2.1171 -1.3524,-2.4685 -2.7732,-4.9992 -4.5403,-7.1972 -2.6098,-3.2468 -5.9516,-6.122 -9.9918,-7.3698 -3.3313,-1.029 -6.8069,-0.8243 -9.942,0.7293 -4.9867,2.4713 -7.9761,7.7301 -8.3593,13.1843 -0.4746,6.7504 2.9435,12.8216 8.0688,17.0064 2.1373,1.745 4.5141,3.0308 6.9777,4.2466 1.9806,0.9777 4.051,1.9174 5.8754,3.17 2.751,1.889 4.2412,4.1397 5.0735,7.3599 0.6417,2.4831 0.7874,5.1514 0.7404,7.7076 -0.0737,4.0099 -0.6262,8.0323 -1.3411,11.9742 -0.3217,1.7736 0.8595,3.4784 2.6331,3.7998 1.7736,0.3217 3.4781,-0.8595 3.7998,-2.6331 0.7784,-4.2914 1.3649,-8.6553 1.4451,-13.0209 0.0582,-3.1629 -0.1536,-6.3919 -0.9473,-9.4635 -1.2271,-4.7489 -3.649,-8.3299 -7.7026,-11.1138 -0.8475,-0.582 -1.7308,-1.1084 -2.6328,-1.6013 -3.2335,-1.7671 -6.9157,-3.1459 -9.786,-5.4899 -3.458,-2.8233 -6.0058,-6.8799 -5.6821,-11.4837 0.2194,-3.1203 1.8533,-6.3535 4.7404,-7.7845 1.631,-0.8081 3.3817,-0.8745 5.1094,-0.3407 2.7238,0.8413 5.0741,3.0399 6.8261,5.2194 1.5101,1.8783 2.7451,4.1315 3.9017,6.2425 1.0136,1.8496 1.9819,3.7239 2.9891,5.5772 0.7846,1.4445 1.5993,3.0121 2.6549,4.2755 0.8008,0.9583 2.0435,1.3725 3.259,1.0859 1.2164,-0.2869 2.1424,-1.2118 2.4307,-2.4279 l 2.6096,-11.0097 5.487,11.7107 c 0.5828,1.2439 1.861,1.984 3.2298,1.8709 1.3725,-0.1137 2.5073,-1.0508 2.8783,-2.3768 l 7.952,-28.4077 c 0.4853,-1.7334 -0.5332,-3.5436 -2.2668,-4.0289 -1.7337,-0.4853 -3.5439,0.5332 -4.0292,2.2669 z"
         style="fill:#ffffff;fill-opacity:1;fill-rule:evenodd;stroke:none"
         id="path4264"
         inkscape:connector-curvature="0" />
    </g>
  </g>
</svg>
