<?xml version="1.0" encoding="UTF-8" standalone="no"?>
<!-- Created with Inkscape (http://www.inkscape.org/) -->

<svg
   xmlns:dc="http://purl.org/dc/elements/1.1/"
   xmlns:cc="http://creativecommons.org/ns#"
   xmlns:rdf="http://www.w3.org/1999/02/22-rdf-syntax-ns#"
   xmlns:svg="http://www.w3.org/2000/svg"
   xmlns="http://www.w3.org/2000/svg"
   xmlns:sodipodi="http://sodipodi.sourceforge.net/DTD/sodipodi-0.dtd"
   xmlns:inkscape="http://www.inkscape.org/namespaces/inkscape"
   width="122.57027mm"
   height="40.223312mm"
   viewBox="0 0 122.57027 40.223312"
   version="1.1"
   id="svg1821"
   inkscape:version="0.92.5 (2060ec1f9f, 2020-04-08)"
   sodipodi:docname="logo-h.svg">
  <defs
     id="defs1815">
    <clipPath
       id="clipPath974"
       clipPathUnits="userSpaceOnUse">
      <path
         style="clip-rule:evenodd"
         inkscape:connector-curvature="0"
         id="path972"
         d="m 586.7527,442.747 v -8.9969 -10.5579 c 0,-2.0186 -0.3856,-3.9181 -1.1566,-5.6982 -0.7707,-1.7805 -1.8153,-3.3293 -3.1328,-4.6469 -1.3179,-1.3178 -2.8738,-2.3621 -4.6678,-3.1331 -1.7944,-0.7707 -3.7007,-1.1565 -5.7192,-1.1565 -2.0189,0 -3.9181,0.3858 -5.6982,1.1565 -1.7805,0.771 -3.3296,1.8153 -4.6471,3.1331 -1.3176,1.3176 -2.3619,2.8664 -3.1329,4.6469 -0.771,1.7801 -1.1565,3.6796 -1.1565,5.6982 0,2.0185 0.3855,3.9248 1.1565,5.7192 0.771,1.7943 1.8153,3.3502 3.1329,4.6681 1.3175,1.3175 2.8666,2.3618 4.6471,3.1328 1.7801,0.771 3.6793,1.1566 5.6982,1.1566 1.4578,0 2.8383,-0.1962 4.1423,-0.5888 1.3033,-0.3926 2.5299,-0.9533 3.6793,-1.6824 v 7.1493 1.9763 h 6.8548 z m 187.9446,-19.5129 c 0,-1.9624 -0.3994,-3.8338 -1.1985,-5.614 -0.7991,-1.7801 -1.8714,-3.3432 -3.217,-4.6888 -1.3456,-1.3459 -2.9157,-2.4182 -4.7101,-3.2173 -1.7943,-0.7991 -3.6725,-1.1985 -5.6349,-1.1985 -2.215,0 -4.2265,0.3994 -6.0347,1.1985 -1.8082,0.7991 -3.3574,1.8714 -4.6471,3.2173 -1.2895,1.3456 -2.2848,2.9087 -2.9858,4.6888 -0.7007,1.7802 -1.0511,3.6516 -1.0511,5.614 0,1.9625 0.3504,3.841 1.0511,5.6353 0.701,1.7943 1.6963,3.3642 2.9858,4.7101 1.2897,1.3456 2.8389,2.4179 4.6471,3.217 1.8082,0.7988 3.8197,1.1985 6.0347,1.1985 1.9624,0 3.8406,-0.3997 5.6349,-1.1985 1.7944,-0.7991 3.3645,-1.8714 4.7101,-3.217 1.3456,-1.3459 2.4179,-2.9158 3.217,-4.7101 0.7991,-1.7943 1.1985,-3.6728 1.1985,-5.6353 z m -6.8547,0 c 0,1.0095 -0.2242,1.9834 -0.6727,2.9228 -0.4487,0.9392 -1.0445,1.7802 -1.7875,2.5232 -0.7427,0.7429 -1.584,1.3388 -2.5231,1.7872 -0.9391,0.4487 -1.9134,0.673 -2.9225,0.673 -1.2337,0 -2.3341,-0.2243 -3.3016,-0.673 -0.9669,-0.4484 -1.7872,-1.0443 -2.4599,-1.7872 -0.6726,-0.743 -1.1914,-1.584 -1.5559,-2.5232 -0.3645,-0.9394 -0.5468,-1.9133 -0.5468,-2.9228 0,-0.981 0.1823,-1.9485 0.5468,-2.9015 0.3645,-0.9533 0.8833,-1.7943 1.5559,-2.5231 0.6727,-0.7291 1.493,-1.3178 2.4599,-1.7666 0.9675,-0.4484 2.0679,-0.6726 3.3016,-0.6726 1.0091,0 1.9834,0.2242 2.9225,0.6726 0.9391,0.4488 1.7804,1.0375 2.5231,1.7666 0.743,0.7288 1.3388,1.5698 1.7875,2.5231 0.4485,0.953 0.6727,1.9205 0.6727,2.9015 z m -35.3245,7.78 v -8.7891 c 0,-1.0094 0.2242,-1.9344 0.6726,-2.7757 0.4488,-0.841 1.0092,-1.5559 1.6821,-2.1447 0.673,-0.5887 1.4088,-1.0513 2.2079,-1.3875 0.7991,-0.3365 1.563,-0.5046 2.2918,-0.5046 h 5.8876 v -6.897 h -5.8876 c -1.7101,0 -3.3922,0.3926 -5.0462,1.1775 -1.654,0.785 -3.126,1.8224 -4.4158,3.1119 -1.2895,1.2898 -2.327,2.7547 -3.1119,4.3948 -0.7849,1.6399 -1.1775,3.3152 -1.1775,5.0253 v 0.1902 17.388 4.9201 h 4.0374 2.8596 v -6.8967 h 12.742 v -6.8125 z m -20.5223,6.9809 c 1.7663,0 3.4206,-0.3365 4.9626,-1.0094 1.5418,-0.673 2.8874,-1.584 4.0371,-2.7335 1.1495,-1.1494 2.0534,-2.495 2.7125,-4.0371 0.6585,-1.5417 0.9882,-3.196 0.9882,-4.9623 v -16.653 h -6.8548 v 16.653 c 0,0.813 -0.1542,1.5769 -0.4626,2.2918 -0.3084,0.7149 -0.722,1.3388 -1.2407,1.8717 -0.5185,0.5327 -1.1353,0.953 -1.8502,1.2614 -0.7149,0.3084 -1.4788,0.4627 -2.2921,0.4627 -0.8127,0 -1.5769,-0.1543 -2.2918,-0.4627 -0.7149,-0.3084 -1.3385,-0.7287 -1.8714,-1.2614 -0.5327,-0.5329 -0.953,-1.1568 -1.2615,-1.8717 -0.3084,-0.7149 -0.4626,-1.4788 -0.4626,-2.2918 v -0.9672 -15.6858 h -6.8547 v 9.4411 6.2447 0.9672 7.8219 4.9204 h 3.911 2.9437 v -1.472 c 0.8972,0.4767 1.8363,0.841 2.8177,1.0933 0.9813,0.2526 2.0044,0.3787 3.0696,0.3787 z m -13.928,-14.7609 c 0,-1.9624 -0.3997,-3.8338 -1.1985,-5.614 -0.7991,-1.7801 -1.8714,-3.3432 -3.2173,-4.6888 -1.3456,-1.3459 -2.9155,-2.4182 -4.7098,-3.2173 -1.7943,-0.7991 -3.6728,-1.1985 -5.6353,-1.1985 -2.2147,0 -4.2261,0.3994 -6.0344,1.1985 -1.8082,0.7991 -3.3573,1.8714 -4.6471,3.2173 -1.2895,1.3456 -2.2847,2.9087 -2.9857,4.6888 -0.701,1.7802 -1.0514,3.6516 -1.0514,5.614 0,1.9625 0.3504,3.841 1.0514,5.6353 0.701,1.7943 1.6962,3.3642 2.9857,4.7101 1.2898,1.3456 2.8389,2.4179 4.6471,3.217 1.8083,0.7988 3.8197,1.1985 6.0344,1.1985 1.9625,0 3.841,-0.3997 5.6353,-1.1985 1.7943,-0.7991 3.3642,-1.8714 4.7098,-3.217 1.3459,-1.3459 2.4182,-2.9158 3.2173,-4.7101 0.7988,-1.7943 1.1985,-3.6728 1.1985,-5.6353 z m -6.8548,0 c 0,1.0095 -0.2245,1.9834 -0.6726,2.9228 -0.4487,0.9392 -1.0446,1.7802 -1.7875,2.5232 -0.7427,0.7429 -1.584,1.3388 -2.5232,1.7872 -0.9391,0.4487 -1.9134,0.673 -2.9228,0.673 -1.2333,0 -2.3337,-0.2243 -3.3012,-0.673 -0.9669,-0.4484 -1.7872,-1.0443 -2.4599,-1.7872 -0.6729,-0.743 -1.1914,-1.584 -1.5559,-2.5232 -0.3646,-0.9394 -0.5468,-1.9133 -0.5468,-2.9228 0,-0.981 0.1822,-1.9485 0.5468,-2.9015 0.3645,-0.9533 0.883,-1.7943 1.5559,-2.5231 0.6727,-0.7291 1.493,-1.3178 2.4599,-1.7666 0.9675,-0.4484 2.0679,-0.6726 3.3012,-0.6726 1.0094,0 1.9837,0.2242 2.9228,0.6726 0.9392,0.4488 1.7805,1.0375 2.5232,1.7666 0.7429,0.7288 1.3388,1.5698 1.7875,2.5231 0.4481,0.953 0.6726,1.9205 0.6726,2.9015 z m -22.7508,-2.9435 c -0.3365,-1.6823 -0.9391,-3.2451 -1.8082,-4.689 -0.8691,-1.4437 -1.9415,-2.6912 -3.2171,-3.7426 -1.2756,-1.0514 -2.7125,-1.8785 -4.3103,-2.4815 -1.5982,-0.6026 -3.2945,-0.9039 -5.0888,-0.9039 -2.0186,0 -3.9249,0.3855 -5.7192,1.1562 -1.7943,0.7713 -3.3571,1.8224 -4.6888,3.1541 -1.3317,1.3318 -2.3831,2.8948 -3.1541,4.6891 -0.771,1.7941 -1.1565,3.7145 -1.1565,5.7611 0,2.0186 0.3855,3.9252 1.1565,5.7192 0.771,1.7944 1.8224,3.3574 3.1541,4.6891 1.3317,1.3317 2.8945,2.3831 4.6888,3.1541 1.7943,0.7707 3.7006,1.1563 5.7192,1.1563 1.7943,0 3.4906,-0.3014 5.0888,-0.9043 1.5978,-0.6026 3.0347,-1.4298 4.3103,-2.4809 1.2756,-1.0513 2.348,-2.2918 3.2171,-3.7216 0.8691,-1.4298 1.4717,-2.986 1.8082,-4.6681 h -7.149 c -0.5888,1.4298 -1.535,2.6002 -2.8386,3.5113 -1.3037,0.9113 -2.7825,1.3669 -4.4368,1.3669 -1.0933,0 -2.1166,-0.2033 -3.0699,-0.6098 -0.953,-0.4065 -1.7873,-0.9672 -2.5022,-1.682 -0.7149,-0.7149 -1.2756,-1.5421 -1.682,-2.4812 -0.4065,-0.9391 -0.6098,-1.9556 -0.6098,-3.049 0,-1.0933 0.2033,-2.1166 0.6098,-3.0699 0.4064,-0.953 0.9671,-1.7872 1.682,-2.5021 0.7149,-0.7149 1.5492,-1.2756 2.5022,-1.6821 0.9533,-0.4065 1.9766,-0.6097 3.0699,-0.6097 1.6543,0 3.1331,0.4555 4.4368,1.3666 1.3036,0.9113 2.2498,2.0959 2.8386,3.5537 z m -31.233,-6.8692 c -0.4003,-0.7531 -0.8946,-1.4354 -1.4845,-2.0463 -0.7849,-0.813 -1.7031,-1.4646 -2.7544,-1.9553 -1.0514,-0.4907 -2.1796,-0.764 -3.3852,-0.8201 h -0.0419 -0.1684 -0.0419 -0.1684 -10.3451 v 6.8548 h 10.4712 c 0.5888,0.028 1.0865,0.2522 1.493,0.6729 0.4065,0.4204 0.6098,0.9249 0.6098,1.5137 0,0.6168 -0.2175,1.1356 -0.652,1.5559 -0.4346,0.4207 -0.9601,0.6307 -1.5769,0.6307 h -1.556 v 0.0423 c -1.2336,0.028 -2.3831,0.2874 -3.4483,0.7781 -1.0653,0.4904 -1.9905,1.1424 -2.7757,1.9553 -0.7849,0.813 -1.4085,1.7592 -1.8711,2.8386 -0.4627,1.0795 -0.694,2.2357 -0.694,3.4694 0,0.729 0.091,1.4439 0.2733,2.1447 0.1823,0.701 0.4277,1.3597 0.7362,1.9766 l 0.1556,0.0983 c 0.3999,0.7532 0.8946,1.4355 1.4845,2.0464 0.7849,0.8129 1.703,1.4646 2.7544,1.9553 1.0514,0.4907 2.1796,0.7639 3.3851,0.8201 h 0.042 0.1684 0.0419 10.5134 v -6.8548 h -10.4711 c -0.5888,-0.028 -1.0866,-0.2523 -1.4931,-0.6726 -0.4064,-0.4207 -0.6097,-0.9253 -0.6097,-1.514 0,-0.6168 0.2174,-1.1353 0.6517,-1.556 0.4348,-0.4206 0.9604,-0.6307 1.5772,-0.6307 h 1.5559 v -0.0422 c 1.2337,-0.0281 2.3831,-0.2874 3.4484,-0.7781 1.0652,-0.4904 1.9905,-1.1424 2.7757,-1.9554 0.7849,-0.8129 1.4085,-1.7591 1.8711,-2.8386 0.4626,-1.0794 0.6939,-2.2357 0.6939,-3.4693 0,-0.7291 -0.0912,-1.444 -0.2732,-2.1447 -0.1823,-0.701 -0.4278,-1.3598 -0.7362,-1.9766 z m -19.5486,6.9112 c -0.3364,-1.6821 -0.9465,-3.2451 -1.8295,-4.6891 -0.8829,-1.4437 -1.9553,-2.6912 -3.217,-3.7426 -1.2617,-1.0513 -2.6915,-1.8714 -4.2894,-2.4601 -1.5981,-0.5888 -3.2941,-0.8833 -5.0884,-0.8833 -2.0467,0 -3.96,0.3858 -5.7402,1.1565 -1.7804,0.771 -3.3364,1.8224 -4.6681,3.1541 -1.3314,1.3317 -2.3828,2.8877 -3.1538,4.6678 -0.7711,1.7802 -1.1566,3.6939 -1.1566,5.7405 0,2.0466 0.3855,3.96 1.1566,5.7401 0.771,1.7802 1.8224,3.3361 3.1538,4.6678 1.3317,1.3318 2.8877,2.3831 4.6681,3.1542 1.7802,0.771 3.6935,1.1565 5.7402,1.1565 1.5139,0 2.9576,-0.2174 4.3313,-0.652 1.3739,-0.4345 2.6424,-1.0443 3.8061,-1.8292 1.1633,-0.7852 2.2008,-1.7172 3.1118,-2.7966 0.9111,-1.0795 1.647,-2.2638 2.2077,-3.5535 0.1403,-0.3085 0.2525,-0.5888 0.3364,-0.8411 l -0.6729,-1.1355 -2.4389,-3.9107 h -9.1256 l 3.6167,5.8453 c -0.701,0.6449 -1.493,1.1424 -2.376,1.4927 -0.8833,0.3507 -1.8153,0.5259 -2.7966,0.5259 -1.0934,0 -2.1167,-0.2033 -3.07,-0.6098 -0.953,-0.4065 -1.7872,-0.9672 -2.5021,-1.6821 -0.7149,-0.7149 -1.2756,-1.5491 -1.6821,-2.5021 -0.4065,-0.9533 -0.6097,-1.9766 -0.6097,-3.0699 0,-1.0936 0.2032,-2.1167 0.6097,-3.0699 0.4065,-0.9533 0.9672,-1.7873 1.6821,-2.5022 0.7149,-0.7149 1.5491,-1.2759 2.5021,-1.6823 0.9533,-0.4063 1.9766,-0.6095 3.07,-0.6095 1.654,0 3.1328,0.4623 4.4367,1.3876 1.3034,0.9252 2.2496,2.1027 2.8387,3.5325 z m -45.6043,-4.9201 c 1.0933,0 2.1095,0.2032 3.0486,0.6095 0.9392,0.4064 1.7663,0.9603 2.4812,1.6611 0.7149,0.701 1.2756,1.5281 1.6821,2.4811 0.4065,0.9533 0.6097,1.9627 0.6097,3.028 0,1.0933 -0.2032,2.1098 -0.6097,3.0489 -0.4065,0.9392 -0.9672,1.7663 -1.6821,2.4812 -0.7149,0.7149 -1.542,1.2756 -2.4812,1.6818 -0.9391,0.4068 -1.9553,0.61 -3.0486,0.61 -1.0656,0 -2.0747,-0.2032 -3.028,-0.61 -0.9533,-0.4062 -1.7801,-0.9669 -2.4812,-1.6818 -0.701,-0.7149 -1.2546,-1.542 -1.6611,-2.4812 -0.4064,-0.9391 -0.6097,-1.9556 -0.6097,-3.0489 0,-1.0653 0.2033,-2.0747 0.6097,-3.028 0.4065,-0.953 0.9601,-1.7801 1.6611,-2.4811 0.7011,-0.7008 1.5279,-1.2547 2.4812,-1.6611 0.9533,-0.4063 1.9624,-0.6095 3.028,-0.6095" />
    </clipPath>
    <linearGradient
       id="linearGradient982"
       spreadMethod="pad"
       gradientUnits="userSpaceOnUse"
       y2="408.45999"
       x2="665.96997"
       y1="444.73001"
       x1="666.16998">
      <stop
         id="stop976"
         offset="0"
         style="stop-opacity:1;stop-color:#ec008c" />
      <stop
         id="stop978"
         offset="0.45787546"
         style="stop-opacity:1;stop-color:#833184" />
      <stop
         id="stop980"
         offset="1"
         style="stop-opacity:1;stop-color:#833184" />
    </linearGradient>
    <clipPath
       id="clipPath992"
       clipPathUnits="userSpaceOnUse">
      <path
         style="clip-rule:evenodd"
         inkscape:connector-curvature="0"
         id="path990"
         d="m 733.6981,388.1259 v -14.6347 h -6.8547 v 2.2711 c -1.1492,-0.729 -2.3828,-1.2897 -3.7003,-1.6823 -1.3179,-0.3926 -2.6915,-0.5888 -4.1213,-0.5888 -2.0186,0 -3.9249,0.3855 -5.7192,1.1565 -1.7943,0.7711 -3.3574,1.8154 -4.6891,3.1329 -1.3317,1.3178 -2.3831,2.8738 -3.1541,4.6681 -0.7707,1.794 -1.1563,3.7006 -1.1563,5.7192 0,2.0185 0.3856,3.9251 1.1563,5.7192 0.771,1.7943 1.8224,3.3573 3.1541,4.689 1.3317,1.3317 2.8948,2.3828 4.6891,3.1541 1.7943,0.7708 3.7006,1.1563 5.7192,1.1563 2.0185,0 3.9248,-0.3855 5.7191,-1.1563 1.7944,-0.7713 3.3503,-1.8224 4.6679,-3.1541 1.3178,-1.3317 2.3621,-2.8947 3.1331,-4.689 0.7707,-1.7941 1.1562,-3.7007 1.1562,-5.7192 z m -98.1941,2.9858 v -17.6624 h -6.8547 v 17.1578 c 0,0.6726 -0.1332,1.3104 -0.3994,1.9131 -0.2665,0.6029 -0.6168,1.1217 -1.0514,1.5562 -0.4345,0.4346 -0.9533,0.7849 -1.5559,1.0514 -0.6027,0.2662 -1.2407,0.3994 -1.9137,0.3994 -0.6726,0 -1.3104,-0.1332 -1.9131,-0.3994 -0.6029,-0.2665 -1.1217,-0.6168 -1.5562,-1.0514 -0.4343,-0.4345 -0.7849,-0.9533 -1.0514,-1.5562 -0.2662,-0.6027 -0.3994,-1.2405 -0.3994,-1.9131 v -17.1578 h -6.8544 v 17.1578 c 0,0.6726 -0.1333,1.3104 -0.3997,1.9131 -0.2665,0.6029 -0.6168,1.1217 -1.0514,1.5562 -0.4345,0.4346 -0.9533,0.7849 -1.5559,1.0514 -0.6027,0.2662 -1.2405,0.3994 -1.9134,0.3994 -0.673,0 -1.3108,-0.1332 -1.9134,-0.3994 -0.6029,-0.2665 -1.1214,-0.6168 -1.5559,-1.0514 -0.4346,-0.4345 -0.785,-0.9533 -1.0514,-1.5562 -0.2665,-0.6027 -0.3994,-1.2405 -0.3994,-1.9131 v -17.1578 h -6.8548 v 24.5171 4.9201 h 4.4156 2.4392 v -1.5982 c 1.5418,0.7291 3.1819,1.0936 4.9201,1.0936 1.654,0 3.196,-0.3084 4.6258,-0.9252 1.4298,-0.6168 2.6774,-1.4579 3.7426,-2.5231 1.0656,1.0652 2.306,1.9063 3.7219,2.5231 1.4159,0.6168 2.9506,0.9252 4.6046,0.9252 1.5701,0 3.056,-0.2942 4.4578,-0.8833 1.4017,-0.5887 2.6283,-1.3875 3.6796,-2.3969 1.0514,-1.0092 1.8995,-2.2006 2.5444,-3.5745 0.6446,-1.3737 0.9953,-2.8457 1.0514,-4.4155 z m 29.9418,-2.9858 v -14.6347 h -6.8547 v 2.2711 c -1.1495,-0.729 -2.3828,-1.2897 -3.7006,-1.6823 -1.3176,-0.3926 -2.6915,-0.5888 -4.1213,-0.5888 -2.0186,0 -3.9249,0.3855 -5.7192,1.1565 -1.7943,0.7711 -3.3571,1.8154 -4.6891,3.1329 -1.3314,1.3178 -2.3828,2.8738 -3.1538,4.6681 -0.771,1.794 -1.1565,3.7006 -1.1565,5.7192 0,2.0185 0.3855,3.9251 1.1565,5.7192 0.771,1.7943 1.8224,3.3573 3.1538,4.689 1.332,1.3317 2.8948,2.3828 4.6891,3.1541 1.7943,0.7708 3.7006,1.1563 5.7192,1.1563 2.0185,0 3.9251,-0.3855 5.7191,-1.1563 1.7944,-0.7713 3.3506,-1.8224 4.6681,-3.1541 1.3176,-1.3317 2.3619,-2.8947 3.1332,-4.689 0.7707,-1.7941 1.1562,-3.7007 1.1562,-5.7192 z m -14.6766,-7.7799 c 1.0652,0 2.0746,0.2032 3.0279,0.6097 0.9533,0.4065 1.7873,0.9672 2.5022,1.6821 0.7149,0.7149 1.2756,1.542 1.6821,2.4811 0.4067,0.9391 0.6097,1.9557 0.6097,3.049 0,1.0933 -0.203,2.1166 -0.6097,3.0699 -0.4065,0.9533 -0.9672,1.7872 -1.6821,2.5021 -0.7149,0.7149 -1.5421,1.2756 -2.4812,1.6821 -0.9391,0.4068 -1.9556,0.6097 -3.0489,0.6097 -1.0934,0 -2.1096,-0.2029 -3.049,-0.6097 -0.9391,-0.4065 -1.766,-0.9672 -2.4809,-1.6821 -0.7149,-0.7149 -1.2758,-1.5488 -1.682,-2.5021 -0.4065,-0.9533 -0.6098,-1.9766 -0.6098,-3.0699 0,-1.0653 0.2033,-2.0747 0.6098,-3.028 0.4062,-0.953 0.9671,-1.7872 1.682,-2.5021 0.7149,-0.7149 1.5418,-1.2756 2.4809,-1.6821 0.9394,-0.4065 1.9556,-0.6097 3.049,-0.6097 z m 29.0168,22.5824 c 1.7663,0 3.4203,-0.3361 4.9623,-1.0091 1.5421,-0.6729 2.8877,-1.584 4.0371,-2.7334 1.1495,-1.1495 2.0537,-2.4951 2.7125,-4.0371 0.6588,-1.5421 0.9882,-3.1961 0.9882,-4.9624 v -16.653 h -6.8548 v 16.653 c 0,0.813 -0.1539,1.5769 -0.4623,2.2918 -0.3084,0.7149 -0.722,1.3388 -1.2407,1.8715 -0.5188,0.5326 -1.1353,0.9533 -1.8502,1.2617 -0.7149,0.3081 -1.4791,0.4626 -2.2921,0.4626 -0.813,0 -1.5769,-0.1545 -2.2918,-0.4626 -0.7149,-0.3084 -1.3388,-0.7291 -1.8714,-1.2617 -0.5327,-0.5327 -0.9533,-1.1566 -1.2614,-1.8715 -0.3085,-0.7149 -0.4627,-1.4788 -0.4627,-2.2918 v -0.9672 -15.6858 h -6.8547 v 15.6858 0.9672 7.8219 4.9201 h 3.911 2.9437 v -1.4717 c 0.8969,0.4768 1.836,0.841 2.8177,1.0933 0.981,0.2526 2.0044,0.3784 3.0696,0.3784 z m 22.2041,-29.4791 h -6.8548 v 20.5446 h 6.8548 z m -6.8548,22.6471 v 4.5615 2.2932 h 6.8548 v -2.2932 -4.5615 z m 23.8865,-15.7504 c 1.0652,0 2.0744,0.2032 3.0276,0.6097 0.9533,0.4065 1.7873,0.9672 2.5022,1.6821 0.7149,0.7149 1.2759,1.542 1.6824,2.4811 0.4064,0.9391 0.6094,1.9557 0.6094,3.049 0,1.0933 -0.203,2.1166 -0.6094,3.0699 -0.4065,0.9533 -0.9675,1.7872 -1.6824,2.5021 -0.7149,0.7149 -1.5418,1.2756 -2.4809,1.6821 -0.9394,0.4068 -1.9556,0.6097 -3.0489,0.6097 -1.0934,0 -2.1099,-0.2029 -3.049,-0.6097 -0.9391,-0.4065 -1.7662,-0.9672 -2.4811,-1.6821 -0.7149,-0.7149 -1.2756,-1.5488 -1.6821,-2.5021 -0.4065,-0.9533 -0.6098,-1.9766 -0.6098,-3.0699 0,-1.0653 0.2033,-2.0747 0.6098,-3.028 0.4065,-0.953 0.9672,-1.7872 1.6821,-2.5021 0.7149,-0.7149 1.542,-1.2756 2.4811,-1.6821 0.9391,-0.4065 1.9556,-0.6097 3.049,-0.6097" />
    </clipPath>
    <linearGradient
       id="linearGradient1000"
       spreadMethod="pad"
       gradientUnits="userSpaceOnUse"
       y2="373.44"
       x2="664.37"
       y1="402.95999"
       x1="664.59003">
      <stop
         id="stop994"
         offset="0"
         style="stop-opacity:1;stop-color:#ec008c" />
      <stop
         id="stop996"
         offset="0.45787546"
         style="stop-opacity:1;stop-color:#833184" />
      <stop
         id="stop998"
         offset="1"
         style="stop-opacity:1;stop-color:#833184" />
    </linearGradient>
    <clipPath
       id="clipPath1012"
       clipPathUnits="userSpaceOnUse">
      <path
         style="clip-rule:evenodd"
         inkscape:connector-curvature="0"
         id="path1010"
         d="m 483.2864,460.0522 c 19.101,-7.499 56.7332,-33.4712 56.7785,-45.4411 2.939,-8.9773 -31.8863,-44.9917 -65.7306,-56.8295 -16.3882,-5.7322 -31.6236,-7.3295 -41.0193,11.7309 -4.5244,9.1786 -6.963,22.4212 -5.7521,39.7681 2.2374,22.4872 9.4411,39.4407 21.9447,50.4836 11.2646,9.9491 20.4738,5.5111 33.7788,0.288 z m 7.5098,-5.8445 c 16.1555,-6.5417 47.9855,-29.1996 48.0237,-39.6422 2.4852,-7.8321 -26.9696,-39.2505 -55.5953,-49.5779 -13.8611,-5.0009 -26.7477,-6.3942 -34.6946,10.2339 -3.8265,8.0076 -5.8893,19.5599 -4.8646,34.6932 1.8921,19.6183 7.9846,34.4081 18.5604,44.0422 9.5276,8.6794 17.3172,4.8075 28.5704,0.2508" />
    </clipPath>
    <linearGradient
       id="linearGradient1018"
       spreadMethod="pad"
       gradientUnits="userSpaceOnUse"
       y2="458.97"
       x2="456.85999"
       y1="360.67001"
       x1="510.63">
      <stop
         id="stop1014"
         offset="0"
         style="stop-opacity:1;stop-color:#2163b6" />
      <stop
         id="stop1016"
         offset="1"
         style="stop-opacity:1;stop-color:#00adef" />
    </linearGradient>
    <clipPath
       id="clipPath1028"
       clipPathUnits="userSpaceOnUse">
      <path
         style="clip-rule:evenodd"
         inkscape:connector-curvature="0"
         id="path1026"
         d="m 490.3461,458.3307 c 19.8116,-7.5089 58.8447,-33.5168 58.8914,-45.5025 3.0479,-8.9901 -33.0732,-45.0531 -68.1766,-56.9073 -10.9239,-3.689 -21.3542,-5.6667 -30.0002,-1.5437 7.0674,-1.3173 15.0245,0.5187 23.2736,3.4041 33.8445,11.8384 68.6693,47.8525 65.7306,56.8298 -0.0453,11.9696 -37.6775,37.9423 -56.7785,45.4411 -3.369,1.3227 -6.4752,2.5943 -9.4187,3.5955 5.0258,-0.8138 10.3306,-2.9866 16.4784,-5.317" />
    </clipPath>
    <linearGradient
       id="linearGradient1034"
       spreadMethod="pad"
       gradientUnits="userSpaceOnUse"
       y2="407.85999"
       x2="549.41998"
       y1="407.85999"
       x1="451.06">
      <stop
         id="stop1030"
         offset="0"
         style="stop-opacity:1;stop-color:#ed1c24" />
      <stop
         id="stop1032"
         offset="1"
         style="stop-opacity:1;stop-color:#f47216" />
    </linearGradient>
    <clipPath
       id="clipPath1044"
       clipPathUnits="userSpaceOnUse">
      <path
         style="clip-rule:evenodd"
         inkscape:connector-curvature="0"
         id="path1042"
         d="m 490.7962,454.2077 c 16.1555,-6.5417 47.9855,-29.1999 48.0237,-39.6422 2.4855,-7.8321 -26.9699,-39.2508 -55.5953,-49.5779 -13.8611,-5.0009 -26.7477,-6.3944 -34.6946,10.2339 -3.8268,8.0073 -5.8896,19.5599 -4.8649,34.6932 1.8924,19.6183 7.9849,34.4078 18.5607,44.0422 9.5276,8.6791 17.3172,4.8075 28.5704,0.2508" />
    </clipPath>
    <linearGradient
       id="linearGradient1052"
       spreadMethod="pad"
       gradientUnits="userSpaceOnUse"
       y2="361.67001"
       x2="489.48001"
       y1="459.10001"
       x1="492.89001">
      <stop
         id="stop1046"
         offset="0"
         style="stop-opacity:1;stop-color:#ec008c" />
      <stop
         id="stop1048"
         offset="0.45787546"
         style="stop-opacity:1;stop-color:#833184" />
      <stop
         id="stop1050"
         offset="1"
         style="stop-opacity:1;stop-color:#833184" />
    </linearGradient>
    <clipPath
       id="clipPath1062"
       clipPathUnits="userSpaceOnUse">
      <path
         style="clip-rule:evenodd"
         inkscape:connector-curvature="0"
         id="path1060"
         d="m 493.5708,457.8097 c 16.9495,-6.7963 50.3438,-30.3361 50.3838,-41.1845 2.6079,-8.1372 -28.2954,-40.7781 -58.3276,-51.5075 -5.9162,-2.1135 -11.6635,-3.6066 -16.9611,-3.4713 4.6686,0.1148 9.676,1.4703 14.8184,3.3256 28.4921,10.2792 57.81,41.5513 55.3362,49.3469 -0.038,10.3938 -31.7197,32.9462 -47.8001,39.4577 -11.2008,4.5354 -18.9541,8.3891 -28.4371,-0.2497 -10.5265,-9.5894 -16.5906,-24.3102 -18.4743,-43.837 -0.1542,-2.2765 -0.2375,-4.4711 -0.2559,-6.5849 -0.0241,2.7581 0.0626,5.6535 0.2701,8.6882 1.9851,20.3817 8.3772,35.7469 19.4729,45.756 9.9958,9.017 18.1681,4.9947 29.9747,0.2605" />
    </clipPath>
    <linearGradient
       id="linearGradient1068"
       spreadMethod="pad"
       gradientUnits="userSpaceOnUse"
       y2="436.85999"
       x2="450.14001"
       y1="387.70999"
       x1="537.81">
      <stop
         id="stop1064"
         offset="0"
         style="stop-opacity:1;stop-color:#ed1c24" />
      <stop
         id="stop1066"
         offset="1"
         style="stop-opacity:1;stop-color:#f47216" />
    </linearGradient>
    <clipPath
       id="clipPath1078"
       clipPathUnits="userSpaceOnUse">
      <path
         style="clip-rule:evenodd"
         inkscape:connector-curvature="0"
         id="path1076"
         d="m 487.2197,460.8162 c 14.6265,-6.2493 41.9043,-26.2242 47.674,-38.4109 -8.9839,11.2425 -31.2412,26.2562 -43.8733,31.3713 -11.2008,4.5354 -18.9541,8.3891 -28.4371,-0.2497 -10.5265,-9.5894 -16.5906,-24.3102 -18.4743,-43.837 -1.0199,-15.063 1.0333,-26.5615 4.8422,-34.5316 4.3787,-9.1622 10.2645,-12.8257 16.9872,-13.4275 -8.6466,-0.7112 -16.2567,2.5824 -21.6366,14.4604 -3.886,8.5791 -5.9805,20.9563 -4.9399,37.1702 1.9213,21.0186 8.1082,36.8637 18.847,47.1857 9.674,9.2991 17.5844,5.1512 29.0108,0.2691" />
    </clipPath>
    <linearGradient
       id="linearGradient1084"
       spreadMethod="pad"
       gradientUnits="userSpaceOnUse"
       y2="413.87"
       x2="534.89001"
       y1="413.87"
       x1="439.10001">
      <stop
         id="stop1080"
         offset="0"
         style="stop-opacity:1;stop-color:#2163b6" />
      <stop
         id="stop1082"
         offset="1"
         style="stop-opacity:1;stop-color:#00adef" />
    </linearGradient>
  </defs>
  <sodipodi:namedview
     id="base"
     pagecolor="#ffffff"
     bordercolor="#666666"
     borderopacity="1.0"
     inkscape:pageopacity="0.0"
     inkscape:pageshadow="2"
     inkscape:zoom="0.35"
     inkscape:cx="-419.79972"
     inkscape:cy="-135.41602"
     inkscape:document-units="mm"
     inkscape:current-layer="layer1"
     showgrid="false"
     fit-margin-top="0"
     fit-margin-left="0"
     fit-margin-right="0"
     fit-margin-bottom="0"
     inkscape:window-width="2560"
     inkscape:window-height="1015"
     inkscape:window-x="1366"
     inkscape:window-y="0"
     inkscape:window-maximized="1" />
  <metadata
     id="metadata1818">
    <rdf:RDF>
      <cc:Work
         rdf:about="">
        <dc:format>image/svg+xml</dc:format>
        <dc:type
           rdf:resource="http://purl.org/dc/dcmitype/StillImage" />
        <dc:title></dc:title>
      </cc:Work>
    </rdf:RDF>
  </metadata>
  <g
     inkscape:label="Camada 1"
     inkscape:groupmode="layer"
     id="layer1"
     transform="translate(-44.5482,-72.781199)">
    <g
       id="g964"
       transform="matrix(0.35277777,0,0,-0.35277777,-106.17752,237.20927)">
      <g
         id="g966">
        <g
           id="g968">
          <g
             id="g970"
             clip-path="url(#clipPath974)">
            <path
               d="m 586.7527,442.747 v -8.9969 -10.5579 c 0,-2.0186 -0.3856,-3.9181 -1.1566,-5.6982 -0.7707,-1.7805 -1.8153,-3.3293 -3.1328,-4.6469 -1.3179,-1.3178 -2.8738,-2.3621 -4.6678,-3.1331 -1.7944,-0.7707 -3.7007,-1.1565 -5.7192,-1.1565 -2.0189,0 -3.9181,0.3858 -5.6982,1.1565 -1.7805,0.771 -3.3296,1.8153 -4.6471,3.1331 -1.3176,1.3176 -2.3619,2.8664 -3.1329,4.6469 -0.771,1.7801 -1.1565,3.6796 -1.1565,5.6982 0,2.0185 0.3855,3.9248 1.1565,5.7192 0.771,1.7943 1.8153,3.3502 3.1329,4.6681 1.3175,1.3175 2.8666,2.3618 4.6471,3.1328 1.7801,0.771 3.6793,1.1566 5.6982,1.1566 1.4578,0 2.8383,-0.1962 4.1423,-0.5888 1.3033,-0.3926 2.5299,-0.9533 3.6793,-1.6824 v 7.1493 1.9763 h 6.8548 z m 187.9446,-19.5129 c 0,-1.9624 -0.3994,-3.8338 -1.1985,-5.614 -0.7991,-1.7801 -1.8714,-3.3432 -3.217,-4.6888 -1.3456,-1.3459 -2.9157,-2.4182 -4.7101,-3.2173 -1.7943,-0.7991 -3.6725,-1.1985 -5.6349,-1.1985 -2.215,0 -4.2265,0.3994 -6.0347,1.1985 -1.8082,0.7991 -3.3574,1.8714 -4.6471,3.2173 -1.2895,1.3456 -2.2848,2.9087 -2.9858,4.6888 -0.7007,1.7802 -1.0511,3.6516 -1.0511,5.614 0,1.9625 0.3504,3.841 1.0511,5.6353 0.701,1.7943 1.6963,3.3642 2.9858,4.7101 1.2897,1.3456 2.8389,2.4179 4.6471,3.217 1.8082,0.7988 3.8197,1.1985 6.0347,1.1985 1.9624,0 3.8406,-0.3997 5.6349,-1.1985 1.7944,-0.7991 3.3645,-1.8714 4.7101,-3.217 1.3456,-1.3459 2.4179,-2.9158 3.217,-4.7101 0.7991,-1.7943 1.1985,-3.6728 1.1985,-5.6353 z m -6.8547,0 c 0,1.0095 -0.2242,1.9834 -0.6727,2.9228 -0.4487,0.9392 -1.0445,1.7802 -1.7875,2.5232 -0.7427,0.7429 -1.584,1.3388 -2.5231,1.7872 -0.9391,0.4487 -1.9134,0.673 -2.9225,0.673 -1.2337,0 -2.3341,-0.2243 -3.3016,-0.673 -0.9669,-0.4484 -1.7872,-1.0443 -2.4599,-1.7872 -0.6726,-0.743 -1.1914,-1.584 -1.5559,-2.5232 -0.3645,-0.9394 -0.5468,-1.9133 -0.5468,-2.9228 0,-0.981 0.1823,-1.9485 0.5468,-2.9015 0.3645,-0.9533 0.8833,-1.7943 1.5559,-2.5231 0.6727,-0.7291 1.493,-1.3178 2.4599,-1.7666 0.9675,-0.4484 2.0679,-0.6726 3.3016,-0.6726 1.0091,0 1.9834,0.2242 2.9225,0.6726 0.9391,0.4488 1.7804,1.0375 2.5231,1.7666 0.743,0.7288 1.3388,1.5698 1.7875,2.5231 0.4485,0.953 0.6727,1.9205 0.6727,2.9015 z m -35.3245,7.78 v -8.7891 c 0,-1.0094 0.2242,-1.9344 0.6726,-2.7757 0.4488,-0.841 1.0092,-1.5559 1.6821,-2.1447 0.673,-0.5887 1.4088,-1.0513 2.2079,-1.3875 0.7991,-0.3365 1.563,-0.5046 2.2918,-0.5046 h 5.8876 v -6.897 h -5.8876 c -1.7101,0 -3.3922,0.3926 -5.0462,1.1775 -1.654,0.785 -3.126,1.8224 -4.4158,3.1119 -1.2895,1.2898 -2.327,2.7547 -3.1119,4.3948 -0.7849,1.6399 -1.1775,3.3152 -1.1775,5.0253 v 0.1902 17.388 4.9201 h 4.0374 2.8596 v -6.8967 h 12.742 v -6.8125 z m -20.5223,6.9809 c 1.7663,0 3.4206,-0.3365 4.9626,-1.0094 1.5418,-0.673 2.8874,-1.584 4.0371,-2.7335 1.1495,-1.1494 2.0534,-2.495 2.7125,-4.0371 0.6585,-1.5417 0.9882,-3.196 0.9882,-4.9623 v -16.653 h -6.8548 v 16.653 c 0,0.813 -0.1542,1.5769 -0.4626,2.2918 -0.3084,0.7149 -0.722,1.3388 -1.2407,1.8717 -0.5185,0.5327 -1.1353,0.953 -1.8502,1.2614 -0.7149,0.3084 -1.4788,0.4627 -2.2921,0.4627 -0.8127,0 -1.5769,-0.1543 -2.2918,-0.4627 -0.7149,-0.3084 -1.3385,-0.7287 -1.8714,-1.2614 -0.5327,-0.5329 -0.953,-1.1568 -1.2615,-1.8717 -0.3084,-0.7149 -0.4626,-1.4788 -0.4626,-2.2918 v -0.9672 -15.6858 h -6.8547 v 9.4411 6.2447 0.9672 7.8219 4.9204 h 3.911 2.9437 v -1.472 c 0.8972,0.4767 1.8363,0.841 2.8177,1.0933 0.9813,0.2526 2.0044,0.3787 3.0696,0.3787 z m -13.928,-14.7609 c 0,-1.9624 -0.3997,-3.8338 -1.1985,-5.614 -0.7991,-1.7801 -1.8714,-3.3432 -3.2173,-4.6888 -1.3456,-1.3459 -2.9155,-2.4182 -4.7098,-3.2173 -1.7943,-0.7991 -3.6728,-1.1985 -5.6353,-1.1985 -2.2147,0 -4.2261,0.3994 -6.0344,1.1985 -1.8082,0.7991 -3.3573,1.8714 -4.6471,3.2173 -1.2895,1.3456 -2.2847,2.9087 -2.9857,4.6888 -0.701,1.7802 -1.0514,3.6516 -1.0514,5.614 0,1.9625 0.3504,3.841 1.0514,5.6353 0.701,1.7943 1.6962,3.3642 2.9857,4.7101 1.2898,1.3456 2.8389,2.4179 4.6471,3.217 1.8083,0.7988 3.8197,1.1985 6.0344,1.1985 1.9625,0 3.841,-0.3997 5.6353,-1.1985 1.7943,-0.7991 3.3642,-1.8714 4.7098,-3.217 1.3459,-1.3459 2.4182,-2.9158 3.2173,-4.7101 0.7988,-1.7943 1.1985,-3.6728 1.1985,-5.6353 z m -6.8548,0 c 0,1.0095 -0.2245,1.9834 -0.6726,2.9228 -0.4487,0.9392 -1.0446,1.7802 -1.7875,2.5232 -0.7427,0.7429 -1.584,1.3388 -2.5232,1.7872 -0.9391,0.4487 -1.9134,0.673 -2.9228,0.673 -1.2333,0 -2.3337,-0.2243 -3.3012,-0.673 -0.9669,-0.4484 -1.7872,-1.0443 -2.4599,-1.7872 -0.6729,-0.743 -1.1914,-1.584 -1.5559,-2.5232 -0.3646,-0.9394 -0.5468,-1.9133 -0.5468,-2.9228 0,-0.981 0.1822,-1.9485 0.5468,-2.9015 0.3645,-0.9533 0.883,-1.7943 1.5559,-2.5231 0.6727,-0.7291 1.493,-1.3178 2.4599,-1.7666 0.9675,-0.4484 2.0679,-0.6726 3.3012,-0.6726 1.0094,0 1.9837,0.2242 2.9228,0.6726 0.9392,0.4488 1.7805,1.0375 2.5232,1.7666 0.7429,0.7288 1.3388,1.5698 1.7875,2.5231 0.4481,0.953 0.6726,1.9205 0.6726,2.9015 z m -22.7508,-2.9435 c -0.3365,-1.6823 -0.9391,-3.2451 -1.8082,-4.689 -0.8691,-1.4437 -1.9415,-2.6912 -3.2171,-3.7426 -1.2756,-1.0514 -2.7125,-1.8785 -4.3103,-2.4815 -1.5982,-0.6026 -3.2945,-0.9039 -5.0888,-0.9039 -2.0186,0 -3.9249,0.3855 -5.7192,1.1562 -1.7943,0.7713 -3.3571,1.8224 -4.6888,3.1541 -1.3317,1.3318 -2.3831,2.8948 -3.1541,4.6891 -0.771,1.7941 -1.1565,3.7145 -1.1565,5.7611 0,2.0186 0.3855,3.9252 1.1565,5.7192 0.771,1.7944 1.8224,3.3574 3.1541,4.6891 1.3317,1.3317 2.8945,2.3831 4.6888,3.1541 1.7943,0.7707 3.7006,1.1563 5.7192,1.1563 1.7943,0 3.4906,-0.3014 5.0888,-0.9043 1.5978,-0.6026 3.0347,-1.4298 4.3103,-2.4809 1.2756,-1.0513 2.348,-2.2918 3.2171,-3.7216 0.8691,-1.4298 1.4717,-2.986 1.8082,-4.6681 h -7.149 c -0.5888,1.4298 -1.535,2.6002 -2.8386,3.5113 -1.3037,0.9113 -2.7825,1.3669 -4.4368,1.3669 -1.0933,0 -2.1166,-0.2033 -3.0699,-0.6098 -0.953,-0.4065 -1.7873,-0.9672 -2.5022,-1.682 -0.7149,-0.7149 -1.2756,-1.5421 -1.682,-2.4812 -0.4065,-0.9391 -0.6098,-1.9556 -0.6098,-3.049 0,-1.0933 0.2033,-2.1166 0.6098,-3.0699 0.4064,-0.953 0.9671,-1.7872 1.682,-2.5021 0.7149,-0.7149 1.5492,-1.2756 2.5022,-1.6821 0.9533,-0.4065 1.9766,-0.6097 3.0699,-0.6097 1.6543,0 3.1331,0.4555 4.4368,1.3666 1.3036,0.9113 2.2498,2.0959 2.8386,3.5537 z m -31.233,-6.8692 c -0.4003,-0.7531 -0.8946,-1.4354 -1.4845,-2.0463 -0.7849,-0.813 -1.7031,-1.4646 -2.7544,-1.9553 -1.0514,-0.4907 -2.1796,-0.764 -3.3852,-0.8201 h -0.0419 -0.1684 -0.0419 -0.1684 -10.3451 v 6.8548 h 10.4712 c 0.5888,0.028 1.0865,0.2522 1.493,0.6729 0.4065,0.4204 0.6098,0.9249 0.6098,1.5137 0,0.6168 -0.2175,1.1356 -0.652,1.5559 -0.4346,0.4207 -0.9601,0.6307 -1.5769,0.6307 h -1.556 v 0.0423 c -1.2336,0.028 -2.3831,0.2874 -3.4483,0.7781 -1.0653,0.4904 -1.9905,1.1424 -2.7757,1.9553 -0.7849,0.813 -1.4085,1.7592 -1.8711,2.8386 -0.4627,1.0795 -0.694,2.2357 -0.694,3.4694 0,0.729 0.091,1.4439 0.2733,2.1447 0.1823,0.701 0.4277,1.3597 0.7362,1.9766 l 0.1556,0.0983 c 0.3999,0.7532 0.8946,1.4355 1.4845,2.0464 0.7849,0.8129 1.703,1.4646 2.7544,1.9553 1.0514,0.4907 2.1796,0.7639 3.3851,0.8201 h 0.042 0.1684 0.0419 10.5134 v -6.8548 h -10.4711 c -0.5888,-0.028 -1.0866,-0.2523 -1.4931,-0.6726 -0.4064,-0.4207 -0.6097,-0.9253 -0.6097,-1.514 0,-0.6168 0.2174,-1.1353 0.6517,-1.556 0.4348,-0.4206 0.9604,-0.6307 1.5772,-0.6307 h 1.5559 v -0.0422 c 1.2337,-0.0281 2.3831,-0.2874 3.4484,-0.7781 1.0652,-0.4904 1.9905,-1.1424 2.7757,-1.9554 0.7849,-0.8129 1.4085,-1.7591 1.8711,-2.8386 0.4626,-1.0794 0.6939,-2.2357 0.6939,-3.4693 0,-0.7291 -0.0912,-1.444 -0.2732,-2.1447 -0.1823,-0.701 -0.4278,-1.3598 -0.7362,-1.9766 z m -19.5486,6.9112 c -0.3364,-1.6821 -0.9465,-3.2451 -1.8295,-4.6891 -0.8829,-1.4437 -1.9553,-2.6912 -3.217,-3.7426 -1.2617,-1.0513 -2.6915,-1.8714 -4.2894,-2.4601 -1.5981,-0.5888 -3.2941,-0.8833 -5.0884,-0.8833 -2.0467,0 -3.96,0.3858 -5.7402,1.1565 -1.7804,0.771 -3.3364,1.8224 -4.6681,3.1541 -1.3314,1.3317 -2.3828,2.8877 -3.1538,4.6678 -0.7711,1.7802 -1.1566,3.6939 -1.1566,5.7405 0,2.0466 0.3855,3.96 1.1566,5.7401 0.771,1.7802 1.8224,3.3361 3.1538,4.6678 1.3317,1.3318 2.8877,2.3831 4.6681,3.1542 1.7802,0.771 3.6935,1.1565 5.7402,1.1565 1.5139,0 2.9576,-0.2174 4.3313,-0.652 1.3739,-0.4345 2.6424,-1.0443 3.8061,-1.8292 1.1633,-0.7852 2.2008,-1.7172 3.1118,-2.7966 0.9111,-1.0795 1.647,-2.2638 2.2077,-3.5535 0.1403,-0.3085 0.2525,-0.5888 0.3364,-0.8411 l -0.6729,-1.1355 -2.4389,-3.9107 h -9.1256 l 3.6167,5.8453 c -0.701,0.6449 -1.493,1.1424 -2.376,1.4927 -0.8833,0.3507 -1.8153,0.5259 -2.7966,0.5259 -1.0934,0 -2.1167,-0.2033 -3.07,-0.6098 -0.953,-0.4065 -1.7872,-0.9672 -2.5021,-1.6821 -0.7149,-0.7149 -1.2756,-1.5491 -1.6821,-2.5021 -0.4065,-0.9533 -0.6097,-1.9766 -0.6097,-3.0699 0,-1.0936 0.2032,-2.1167 0.6097,-3.0699 0.4065,-0.9533 0.9672,-1.7873 1.6821,-2.5022 0.7149,-0.7149 1.5491,-1.2759 2.5021,-1.6823 0.9533,-0.4063 1.9766,-0.6095 3.07,-0.6095 1.654,0 3.1328,0.4623 4.4367,1.3876 1.3034,0.9252 2.2496,2.1027 2.8387,3.5325 z m -45.6043,-4.9201 c 1.0933,0 2.1095,0.2032 3.0486,0.6095 0.9392,0.4064 1.7663,0.9603 2.4812,1.6611 0.7149,0.701 1.2756,1.5281 1.6821,2.4811 0.4065,0.9533 0.6097,1.9627 0.6097,3.028 0,1.0933 -0.2032,2.1098 -0.6097,3.0489 -0.4065,0.9392 -0.9672,1.7663 -1.6821,2.4812 -0.7149,0.7149 -1.542,1.2756 -2.4812,1.6818 -0.9391,0.4068 -1.9553,0.61 -3.0486,0.61 -1.0656,0 -2.0747,-0.2032 -3.028,-0.61 -0.9533,-0.4062 -1.7801,-0.9669 -2.4812,-1.6818 -0.701,-0.7149 -1.2546,-1.542 -1.6611,-2.4812 -0.4064,-0.9391 -0.6097,-1.9556 -0.6097,-3.0489 0,-1.0653 0.2033,-2.0747 0.6097,-3.028 0.4065,-0.953 0.9601,-1.7801 1.6611,-2.4811 0.7011,-0.7008 1.5279,-1.2547 2.4812,-1.6611 0.9533,-0.4063 1.9624,-0.6095 3.028,-0.6095"
               style="fill:url(#linearGradient982);fill-rule:evenodd;stroke:none"
               id="path984"
               inkscape:connector-curvature="0" />
          </g>
        </g>
        <g
           id="g986">
          <g
             id="g988"
             clip-path="url(#clipPath992)">
            <path
               d="m 733.6981,388.1259 v -14.6347 h -6.8547 v 2.2711 c -1.1492,-0.729 -2.3828,-1.2897 -3.7003,-1.6823 -1.3179,-0.3926 -2.6915,-0.5888 -4.1213,-0.5888 -2.0186,0 -3.9249,0.3855 -5.7192,1.1565 -1.7943,0.7711 -3.3574,1.8154 -4.6891,3.1329 -1.3317,1.3178 -2.3831,2.8738 -3.1541,4.6681 -0.7707,1.794 -1.1563,3.7006 -1.1563,5.7192 0,2.0185 0.3856,3.9251 1.1563,5.7192 0.771,1.7943 1.8224,3.3573 3.1541,4.689 1.3317,1.3317 2.8948,2.3828 4.6891,3.1541 1.7943,0.7708 3.7006,1.1563 5.7192,1.1563 2.0185,0 3.9248,-0.3855 5.7191,-1.1563 1.7944,-0.7713 3.3503,-1.8224 4.6679,-3.1541 1.3178,-1.3317 2.3621,-2.8947 3.1331,-4.689 0.7707,-1.7941 1.1562,-3.7007 1.1562,-5.7192 z m -98.1941,2.9858 v -17.6624 h -6.8547 v 17.1578 c 0,0.6726 -0.1332,1.3104 -0.3994,1.9131 -0.2665,0.6029 -0.6168,1.1217 -1.0514,1.5562 -0.4345,0.4346 -0.9533,0.7849 -1.5559,1.0514 -0.6027,0.2662 -1.2407,0.3994 -1.9137,0.3994 -0.6726,0 -1.3104,-0.1332 -1.9131,-0.3994 -0.6029,-0.2665 -1.1217,-0.6168 -1.5562,-1.0514 -0.4343,-0.4345 -0.7849,-0.9533 -1.0514,-1.5562 -0.2662,-0.6027 -0.3994,-1.2405 -0.3994,-1.9131 v -17.1578 h -6.8544 v 17.1578 c 0,0.6726 -0.1333,1.3104 -0.3997,1.9131 -0.2665,0.6029 -0.6168,1.1217 -1.0514,1.5562 -0.4345,0.4346 -0.9533,0.7849 -1.5559,1.0514 -0.6027,0.2662 -1.2405,0.3994 -1.9134,0.3994 -0.673,0 -1.3108,-0.1332 -1.9134,-0.3994 -0.6029,-0.2665 -1.1214,-0.6168 -1.5559,-1.0514 -0.4346,-0.4345 -0.785,-0.9533 -1.0514,-1.5562 -0.2665,-0.6027 -0.3994,-1.2405 -0.3994,-1.9131 v -17.1578 h -6.8548 v 24.5171 4.9201 h 4.4156 2.4392 v -1.5982 c 1.5418,0.7291 3.1819,1.0936 4.9201,1.0936 1.654,0 3.196,-0.3084 4.6258,-0.9252 1.4298,-0.6168 2.6774,-1.4579 3.7426,-2.5231 1.0656,1.0652 2.306,1.9063 3.7219,2.5231 1.4159,0.6168 2.9506,0.9252 4.6046,0.9252 1.5701,0 3.056,-0.2942 4.4578,-0.8833 1.4017,-0.5887 2.6283,-1.3875 3.6796,-2.3969 1.0514,-1.0092 1.8995,-2.2006 2.5444,-3.5745 0.6446,-1.3737 0.9953,-2.8457 1.0514,-4.4155 z m 29.9418,-2.9858 v -14.6347 h -6.8547 v 2.2711 c -1.1495,-0.729 -2.3828,-1.2897 -3.7006,-1.6823 -1.3176,-0.3926 -2.6915,-0.5888 -4.1213,-0.5888 -2.0186,0 -3.9249,0.3855 -5.7192,1.1565 -1.7943,0.7711 -3.3571,1.8154 -4.6891,3.1329 -1.3314,1.3178 -2.3828,2.8738 -3.1538,4.6681 -0.771,1.794 -1.1565,3.7006 -1.1565,5.7192 0,2.0185 0.3855,3.9251 1.1565,5.7192 0.771,1.7943 1.8224,3.3573 3.1538,4.689 1.332,1.3317 2.8948,2.3828 4.6891,3.1541 1.7943,0.7708 3.7006,1.1563 5.7192,1.1563 2.0185,0 3.9251,-0.3855 5.7191,-1.1563 1.7944,-0.7713 3.3506,-1.8224 4.6681,-3.1541 1.3176,-1.3317 2.3619,-2.8947 3.1332,-4.689 0.7707,-1.7941 1.1562,-3.7007 1.1562,-5.7192 z m -14.6766,-7.7799 c 1.0652,0 2.0746,0.2032 3.0279,0.6097 0.9533,0.4065 1.7873,0.9672 2.5022,1.6821 0.7149,0.7149 1.2756,1.542 1.6821,2.4811 0.4067,0.9391 0.6097,1.9557 0.6097,3.049 0,1.0933 -0.203,2.1166 -0.6097,3.0699 -0.4065,0.9533 -0.9672,1.7872 -1.6821,2.5021 -0.7149,0.7149 -1.5421,1.2756 -2.4812,1.6821 -0.9391,0.4068 -1.9556,0.6097 -3.0489,0.6097 -1.0934,0 -2.1096,-0.2029 -3.049,-0.6097 -0.9391,-0.4065 -1.766,-0.9672 -2.4809,-1.6821 -0.7149,-0.7149 -1.2758,-1.5488 -1.682,-2.5021 -0.4065,-0.9533 -0.6098,-1.9766 -0.6098,-3.0699 0,-1.0653 0.2033,-2.0747 0.6098,-3.028 0.4062,-0.953 0.9671,-1.7872 1.682,-2.5021 0.7149,-0.7149 1.5418,-1.2756 2.4809,-1.6821 0.9394,-0.4065 1.9556,-0.6097 3.049,-0.6097 z m 29.0168,22.5824 c 1.7663,0 3.4203,-0.3361 4.9623,-1.0091 1.5421,-0.6729 2.8877,-1.584 4.0371,-2.7334 1.1495,-1.1495 2.0537,-2.4951 2.7125,-4.0371 0.6588,-1.5421 0.9882,-3.1961 0.9882,-4.9624 v -16.653 h -6.8548 v 16.653 c 0,0.813 -0.1539,1.5769 -0.4623,2.2918 -0.3084,0.7149 -0.722,1.3388 -1.2407,1.8715 -0.5188,0.5326 -1.1353,0.9533 -1.8502,1.2617 -0.7149,0.3081 -1.4791,0.4626 -2.2921,0.4626 -0.813,0 -1.5769,-0.1545 -2.2918,-0.4626 -0.7149,-0.3084 -1.3388,-0.7291 -1.8714,-1.2617 -0.5327,-0.5327 -0.9533,-1.1566 -1.2614,-1.8715 -0.3085,-0.7149 -0.4627,-1.4788 -0.4627,-2.2918 v -0.9672 -15.6858 h -6.8547 v 15.6858 0.9672 7.8219 4.9201 h 3.911 2.9437 v -1.4717 c 0.8969,0.4768 1.836,0.841 2.8177,1.0933 0.981,0.2526 2.0044,0.3784 3.0696,0.3784 z m 22.2041,-29.4791 h -6.8548 v 20.5446 h 6.8548 z m -6.8548,22.6471 v 4.5615 2.2932 h 6.8548 v -2.2932 -4.5615 z m 23.8865,-15.7504 c 1.0652,0 2.0744,0.2032 3.0276,0.6097 0.9533,0.4065 1.7873,0.9672 2.5022,1.6821 0.7149,0.7149 1.2759,1.542 1.6824,2.4811 0.4064,0.9391 0.6094,1.9557 0.6094,3.049 0,1.0933 -0.203,2.1166 -0.6094,3.0699 -0.4065,0.9533 -0.9675,1.7872 -1.6824,2.5021 -0.7149,0.7149 -1.5418,1.2756 -2.4809,1.6821 -0.9394,0.4068 -1.9556,0.6097 -3.0489,0.6097 -1.0934,0 -2.1099,-0.2029 -3.049,-0.6097 -0.9391,-0.4065 -1.7662,-0.9672 -2.4811,-1.6821 -0.7149,-0.7149 -1.2756,-1.5488 -1.6821,-2.5021 -0.4065,-0.9533 -0.6098,-1.9766 -0.6098,-3.0699 0,-1.0653 0.2033,-2.0747 0.6098,-3.028 0.4065,-0.953 0.9672,-1.7872 1.6821,-2.5021 0.7149,-0.7149 1.542,-1.2756 2.4811,-1.6821 0.9391,-0.4065 1.9556,-0.6097 3.049,-0.6097"
               style="fill:url(#linearGradient1000);fill-rule:evenodd;stroke:none"
               id="path1002"
               inkscape:connector-curvature="0" />
          </g>
        </g>
      </g>
      <g
         id="g1004">
        <g
           id="g1006">
          <g
             id="g1008"
             clip-path="url(#clipPath1012)">
            <path
               d="m 483.2864,460.0522 c 19.101,-7.499 56.7332,-33.4712 56.7785,-45.4411 2.939,-8.9773 -31.8863,-44.9917 -65.7306,-56.8295 -16.3882,-5.7322 -31.6236,-7.3295 -41.0193,11.7309 -4.5244,9.1786 -6.963,22.4212 -5.7521,39.7681 2.2374,22.4872 9.4411,39.4407 21.9447,50.4836 11.2646,9.9491 20.4738,5.5111 33.7788,0.288 z m 7.5098,-5.8445 c 16.1555,-6.5417 47.9855,-29.1996 48.0237,-39.6422 2.4852,-7.8321 -26.9696,-39.2505 -55.5953,-49.5779 -13.8611,-5.0009 -26.7477,-6.3942 -34.6946,10.2339 -3.8265,8.0076 -5.8893,19.5599 -4.8646,34.6932 1.8921,19.6183 7.9846,34.4081 18.5604,44.0422 9.5276,8.6794 17.3172,4.8075 28.5704,0.2508"
               style="fill:url(#linearGradient1018);fill-rule:evenodd;stroke:none"
               id="path1020"
               inkscape:connector-curvature="0" />
          </g>
        </g>
        <g
           id="g1022">
          <g
             id="g1024"
             clip-path="url(#clipPath1028)">
            <path
               d="m 490.3461,458.3307 c 19.8116,-7.5089 58.8447,-33.5168 58.8914,-45.5025 3.0479,-8.9901 -33.0732,-45.0531 -68.1766,-56.9073 -10.9239,-3.689 -21.3542,-5.6667 -30.0002,-1.5437 7.0674,-1.3173 15.0245,0.5187 23.2736,3.4041 33.8445,11.8384 68.6693,47.8525 65.7306,56.8298 -0.0453,11.9696 -37.6775,37.9423 -56.7785,45.4411 -3.369,1.3227 -6.4752,2.5943 -9.4187,3.5955 5.0258,-0.8138 10.3306,-2.9866 16.4784,-5.317"
               style="fill:url(#linearGradient1034);fill-rule:evenodd;stroke:none"
               id="path1036"
               inkscape:connector-curvature="0" />
          </g>
        </g>
        <g
           id="g1038">
          <g
             id="g1040"
             clip-path="url(#clipPath1044)">
            <path
               d="m 490.7962,454.2077 c 16.1555,-6.5417 47.9855,-29.1999 48.0237,-39.6422 2.4855,-7.8321 -26.9699,-39.2508 -55.5953,-49.5779 -13.8611,-5.0009 -26.7477,-6.3944 -34.6946,10.2339 -3.8268,8.0073 -5.8896,19.5599 -4.8649,34.6932 1.8924,19.6183 7.9849,34.4078 18.5607,44.0422 9.5276,8.6791 17.3172,4.8075 28.5704,0.2508"
               style="fill:url(#linearGradient1052);fill-rule:evenodd;stroke:none"
               id="path1054"
               inkscape:connector-curvature="0" />
          </g>
        </g>
        <g
           id="g1056">
          <g
             id="g1058"
             clip-path="url(#clipPath1062)">
            <path
               d="m 493.5708,457.8097 c 16.9495,-6.7963 50.3438,-30.3361 50.3838,-41.1845 2.6079,-8.1372 -28.2954,-40.7781 -58.3276,-51.5075 -5.9162,-2.1135 -11.6635,-3.6066 -16.9611,-3.4713 4.6686,0.1148 9.676,1.4703 14.8184,3.3256 28.4921,10.2792 57.81,41.5513 55.3362,49.3469 -0.038,10.3938 -31.7197,32.9462 -47.8001,39.4577 -11.2008,4.5354 -18.9541,8.3891 -28.4371,-0.2497 -10.5265,-9.5894 -16.5906,-24.3102 -18.4743,-43.837 -0.1542,-2.2765 -0.2375,-4.4711 -0.2559,-6.5849 -0.0241,2.7581 0.0626,5.6535 0.2701,8.6882 1.9851,20.3817 8.3772,35.7469 19.4729,45.756 9.9958,9.017 18.1681,4.9947 29.9747,0.2605"
               style="fill:url(#linearGradient1068);fill-rule:evenodd;stroke:none"
               id="path1070"
               inkscape:connector-curvature="0" />
          </g>
        </g>
        <g
           id="g1072">
          <g
             id="g1074"
             clip-path="url(#clipPath1078)">
            <path
               d="m 487.2197,460.8162 c 14.6265,-6.2493 41.9043,-26.2242 47.674,-38.4109 -8.9839,11.2425 -31.2412,26.2562 -43.8733,31.3713 -11.2008,4.5354 -18.9541,8.3891 -28.4371,-0.2497 -10.5265,-9.5894 -16.5906,-24.3102 -18.4743,-43.837 -1.0199,-15.063 1.0333,-26.5615 4.8422,-34.5316 4.3787,-9.1622 10.2645,-12.8257 16.9872,-13.4275 -8.6466,-0.7112 -16.2567,2.5824 -21.6366,14.4604 -3.886,8.5791 -5.9805,20.9563 -4.9399,37.1702 1.9213,21.0186 8.1082,36.8637 18.847,47.1857 9.674,9.2991 17.5844,5.1512 29.0108,0.2691"
               style="fill:url(#linearGradient1084);fill-rule:evenodd;stroke:none"
               id="path1086"
               inkscape:connector-curvature="0" />
          </g>
        </g>
        <path
           d="m 499.9286,403.6218 -5.7302,-12.2295 c -0.5939,-1.268 -1.9027,-2.0084 -3.2953,-1.8646 -1.3932,0.1434 -2.5228,1.1347 -2.8457,2.4976 l -2.8698,12.1064 c -0.377,-0.7075 -0.7557,-1.4142 -1.1407,-2.1171 -1.3527,-2.4685 -2.7731,-4.9992 -4.5402,-7.1975 -2.6102,-3.2465 -5.9519,-6.1217 -9.9921,-7.3698 -3.331,-1.029 -6.8069,-0.824 -9.942,0.7296 -4.9864,2.4713 -7.9758,7.7301 -8.3591,13.1843 -0.4745,6.7504 2.9435,12.8214 8.0685,17.0064 2.1374,1.745 4.5145,3.0308 6.9778,4.2466 1.9806,0.9777 4.0513,1.9171 5.8754,3.17 2.751,1.889 4.2412,4.1397 5.0734,7.3596 0.6418,2.4834 0.7875,5.1517 0.7407,7.7079 -0.0737,4.0099 -0.6264,8.0323 -1.3413,11.9742 -0.3218,1.7733 0.8594,3.4784 2.6331,3.7998 1.7736,0.3217 3.4784,-0.8595 3.7998,-2.6331 0.7784,-4.2914 1.3649,-8.6553 1.4451,-13.0209 0.0581,-3.1629 -0.1536,-6.3919 -0.9473,-9.4635 -1.2271,-4.7492 -3.6491,-8.3299 -7.7026,-11.1138 -0.8473,-0.582 -1.7308,-1.1084 -2.6328,-1.6013 -3.2335,-1.7671 -6.9154,-3.1459 -9.7861,-5.4899 -3.4577,-2.8233 -6.0055,-6.8802 -5.682,-11.4837 0.2194,-3.1204 1.8533,-6.3538 4.7404,-7.7845 1.6313,-0.8084 3.3817,-0.8745 5.1094,-0.3407 2.7241,0.8413 5.0743,3.0399 6.8264,5.2191 1.51,1.8786 2.7451,4.1318 3.9016,6.2428 1.0137,1.8496 1.982,3.7239 2.9889,5.5772 0.7846,1.4445 1.5995,3.012 2.6552,4.2755 0.8008,0.9583 2.0432,1.3722 3.2587,1.0856 1.2166,-0.2868 2.1424,-1.2115 2.4307,-2.4276 l 2.6098,-11.0097 5.4871,11.7105 c 0.5828,1.2438 1.8606,1.9842 3.2298,1.8711 1.3722,-0.1137 2.5069,-1.0508 2.8783,-2.3768 l 7.9517,-28.4077 c 0.4853,-1.7334 -0.5332,-3.5436 -2.2669,-4.0289 -1.7333,-0.4853 -3.5438,0.5332 -4.0288,2.2669 z"
           style="fill:#ffffff;fill-opacity:1;fill-rule:evenodd;stroke:none"
           id="path1088"
           inkscape:connector-curvature="0" />
      </g>
    </g>
  </g>
</svg>
