<svg width="37" height="40" viewBox="0 0 37 40" fill="none" xmlns="http://www.w3.org/2000/svg">
<path d="M32.9087 18.5156V14.5312C33.9877 13.9583 34.5272 12.9948 34.5272 11.6406C34.5272 8.41146 33.4097 5.66406 31.1747 3.39844C28.9396 1.13281 26.2294 0 23.0438 0H13.1789C9.99336 0 7.28308 1.13281 5.04806 3.39844C2.81304 5.66406 1.69553 8.41146 1.69553 11.6406C1.69553 12.9948 2.23502 13.9583 3.31399 14.5312V18.3594C2.38916 18.5156 1.60562 18.9714 0.96337 19.7266C0.321123 20.4818 0 21.3542 0 22.3438C0 23.3854 0.359658 24.2969 1.07897 25.0781C1.79829 25.8594 2.64606 26.3281 3.62227 26.4844C3.41675 27.4219 3.31399 28.0469 3.31399 28.3594C3.31399 28.8281 3.41675 29.4792 3.62227 30.3125C2.33778 30.9375 1.69553 31.9531 1.69553 33.3594V35C1.69553 36.4062 2.15795 37.5911 3.08279 38.5547C4.00762 39.5182 5.18935 40 6.62799 40H29.5947C31.0334 40 32.2151 39.5182 33.1399 38.5547C34.0648 37.5911 34.5272 36.4062 34.5272 35V33.3594C34.5272 31.9531 33.8849 30.9375 32.6005 30.3125C32.806 29.4792 32.9087 28.8281 32.9087 28.3594C32.9087 27.9427 32.806 27.3698 32.6005 26.6406C33.5767 26.4844 34.4244 26.0156 35.1437 25.2344C35.8631 24.4531 36.2227 23.5417 36.2227 22.5C36.2227 21.5104 35.9016 20.638 35.2594 19.8828C34.6171 19.1276 33.8336 18.6719 32.9087 18.5156ZM6.62799 15H16.4929V18.3594H6.62799V15ZM19.7298 15H29.5947V18.3594H19.7298V15ZM13.1789 3.35938H23.0438C25.3559 3.35938 27.3083 4.16667 28.9011 5.78125C30.4939 7.39583 31.2903 9.34896 31.2903 11.6406H4.93246C4.93246 9.34896 5.72884 7.39583 7.32161 5.78125C8.91439 4.16667 10.8668 3.35938 13.1789 3.35938ZM29.5947 28.3594C29.5947 29.4531 29.0552 30 27.9763 30H8.24645C7.16748 30 6.62799 29.4531 6.62799 28.3594C6.62799 27.2135 7.16748 26.6406 8.24645 26.6406H27.9763C29.0552 26.6406 29.5947 27.2135 29.5947 28.3594ZM31.2903 35C31.2903 36.0938 30.7251 36.6406 29.5947 36.6406H6.62799C5.49763 36.6406 4.93246 36.0938 4.93246 35V33.3594H31.2903V35ZM32.061 23.3594H4.16176C3.59658 23.3594 3.31399 23.0729 3.31399 22.5C3.31399 21.9271 3.59658 21.6406 4.16176 21.6406H32.061C32.6261 21.6406 32.9087 21.9271 32.9087 22.5C32.9087 23.0729 32.6261 23.3594 32.061 23.3594ZM11.5604 5H13.1789V6.64062H11.5604V5ZM16.4929 5H18.1114V6.64062H16.4929V5ZM21.4254 5H23.0438V6.64062H21.4254V5Z" fill="white"/>
</svg>
