<svg width="47" height="45" viewBox="0 0 47 45" fill="none" xmlns="http://www.w3.org/2000/svg">
<path d="M41.1237 6.3992H12.577L12.3016 5.2863C11.9956 3.86425 11.3072 2.70498 10.2363 1.80847C9.16543 0.911967 7.89566 0.463715 6.42702 0.463715H1.9293C1.37856 0.463715 0.919611 0.649198 0.55245 1.02017C0.185289 1.39113 0.00170898 1.88576 0.00170898 2.50404C0.00170898 3.06049 0.185289 3.5242 0.55245 3.89517C0.919611 4.26613 1.37856 4.45162 1.9293 4.45162H6.42702C7.5897 4.45162 8.26283 4.97716 8.44641 6.02823L12.9441 29.7702C13.3113 31.0686 14.0303 32.1196 15.1012 32.9234C16.1721 33.7272 17.3501 34.129 18.6351 34.129H37.1767C37.7887 34.129 38.2782 33.9436 38.6454 33.5726C39.0125 33.2016 39.1961 32.7379 39.1961 32.1815C39.1961 30.8212 38.523 30.1411 37.1767 30.1411H18.6351C17.7784 30.1411 17.1665 29.7702 16.7993 29.0282L16.6157 28.1936H36.2588C37.4827 28.1936 38.5995 27.8226 39.6092 27.0807C40.6189 26.3387 41.3073 25.3804 41.6745 24.2057L46.9983 12.7984V12.3347C46.9983 10.6653 46.4322 9.25874 45.3002 8.11492C44.1681 6.97111 42.7759 6.3992 41.1237 6.3992ZM38.1864 22.629V22.8145C38.0028 23.7419 37.3603 24.2057 36.2588 24.2057H15.8814L13.3113 10.3871H41.1237C42.2252 10.3871 42.8677 10.9126 43.0513 11.9637L38.1864 22.629ZM23.5 40.0645C23.5 41.1774 23.1175 42.1203 22.3526 42.8932C21.5877 43.666 20.6545 44.0524 19.553 44.0524C18.5127 44.0524 17.6101 43.666 16.8452 42.8932C16.0803 42.1203 15.6978 41.1774 15.6978 40.0645C15.6978 38.9516 16.0803 38.0087 16.8452 37.2359C17.6101 36.463 18.5127 36.0766 19.553 36.0766C20.6545 36.0766 21.5877 36.463 22.3526 37.2359C23.1175 38.0087 23.5 38.9516 23.5 40.0645ZM39.1961 40.0645C39.1961 41.1774 38.8137 42.1203 38.0487 42.8932C37.2838 43.666 36.3506 44.0524 35.2491 44.0524C34.1477 44.0524 33.2145 43.666 32.4495 42.8932C31.6846 42.1203 31.3022 41.1774 31.3022 40.0645C31.3022 38.9516 31.6846 38.0087 32.4495 37.2359C33.2145 36.463 34.1477 36.0766 35.2491 36.0766C36.3506 36.0766 37.2838 36.463 38.0487 37.2359C38.8137 38.0087 39.1961 38.9516 39.1961 40.0645Z" fill="white"/>
</svg>
