<svg width="36" height="35" viewBox="0 0 36 35" fill="none" xmlns="http://www.w3.org/2000/svg">
<path d="M32.5025 13.125H30.2872C29.9642 13.125 29.7334 12.9883 29.5949 12.7148C29.1796 12.0768 28.7181 11.5755 28.2104 11.2109L28.0719 11.0742V4.375H26.6181C25.1413 4.375 23.7567 5.01302 22.4645 6.28906L22.326 6.42578V5.94727C22.326 4.35221 21.7376 2.96224 20.5607 1.77734C19.3838 0.592448 17.9646 0 16.3032 0C14.6879 0 13.2918 0.569661 12.1149 1.70898C10.938 2.84831 10.3496 4.26107 10.3496 5.94727C10.3496 6.53971 10.3957 6.99544 10.488 7.31445C9.24193 7.77018 7.97275 8.63607 6.6805 9.91211L3.70369 8.88672L2.52682 7.72461C1.88069 7.08659 1.18841 7.08659 0.449982 7.72461C-0.149994 8.4082 -0.149994 9.0918 0.449982 9.77539L2.24991 11.5527L4.74211 12.373C3.58831 14.1048 3.01142 16.0645 3.01142 18.252V20.4395L4.32675 32.4023C4.41905 33.1315 4.75365 33.7467 5.33055 34.248C5.90745 34.7493 6.56512 35 7.30355 35H9.31116C9.91113 35 10.488 34.8177 11.0419 34.4531C11.5957 34.0885 11.9649 33.5872 12.1495 32.9492L13.1879 30.0098C14.7109 30.4655 16.3724 30.625 18.1723 30.4883L19.0723 32.9492C19.6261 34.2253 20.5722 34.8633 21.9106 34.8633H23.9875C24.7259 34.8633 25.3836 34.6012 25.9605 34.0771C26.5374 33.5531 26.8489 32.9264 26.8951 32.1973L27.5181 26.3867C28.8565 25.0651 29.7795 23.6979 30.2872 22.2852C30.4257 21.9206 30.7257 21.7383 31.1872 21.7383H31.4641C32.5717 21.7383 33.5409 21.3281 34.3717 20.5078C35.2024 19.6875 35.6178 18.7305 35.6178 17.6367V16.0645C35.5255 15.2441 35.1909 14.5492 34.614 13.9795C34.0371 13.4098 33.3333 13.125 32.5025 13.125ZM16.4416 2.93945C17.2724 2.93945 17.9993 3.23568 18.6223 3.82812C19.2454 4.42057 19.5569 5.12695 19.5569 5.94727C19.5569 6.81315 19.2569 7.54232 18.6569 8.13477C18.057 8.72721 17.3185 9.02344 16.4416 9.02344C15.5647 8.93229 14.8263 8.60189 14.2263 8.03223C13.6264 7.46256 13.3264 6.76758 13.3264 5.94727C13.3264 5.12695 13.6264 4.42057 14.2263 3.82812C14.8263 3.23568 15.5647 2.93945 16.4416 2.93945ZM32.5025 17.7734C32.5025 18.0924 32.3871 18.3659 32.1564 18.5938C31.9256 18.8216 31.6487 18.9355 31.3256 18.9355H31.0487C29.3873 18.9355 28.1642 19.7786 27.3796 21.4648C26.9643 22.4674 26.1797 23.584 25.0259 24.8145L24.5413 25.2246L23.7798 32.0605H21.7722L20.1107 27.4121L18.9338 27.5488C18.4262 27.64 17.78 27.6855 16.9955 27.6855C15.6571 27.6855 14.2263 27.4577 12.7033 27.002L11.2495 26.3867L9.31116 32.0605H7.30355L5.91899 20.3027V18.252C5.91899 16.2923 6.51896 14.5833 7.71891 13.125C8.27274 12.9427 8.61888 12.6465 8.75733 12.2363V11.9629C9.35731 11.3704 10.3957 10.6868 11.8726 9.91211C13.0725 11.2793 14.5494 11.9629 16.3032 11.9629C18.4723 11.9629 20.1338 11.097 21.2876 9.36523H21.426C22.0722 9.68425 23.0183 9.43359 24.2644 8.61328C24.3567 8.56771 24.4952 8.46517 24.6798 8.30566C24.8644 8.14616 25.0259 8.04362 25.1644 7.99805V12.373L25.5797 12.8516C25.8566 13.125 26.1105 13.3529 26.3412 13.5352L26.722 13.9111L27.0335 14.2871C27.8642 15.5632 28.9488 16.2012 30.2872 16.2012H32.5025V17.7734ZM23.6413 13.125C23.6413 13.5352 23.5029 13.877 23.226 14.1504C22.9491 14.4238 22.6029 14.5605 22.1876 14.5605C21.7722 14.5605 21.426 14.4238 21.1491 14.1504C20.8722 13.877 20.7338 13.5352 20.7338 13.125C20.7338 12.7148 20.8722 12.373 21.1491 12.0996C21.426 11.8262 21.7722 11.6895 22.1876 11.6895C22.6029 11.6895 22.9491 11.8262 23.226 12.0996C23.5029 12.373 23.6413 12.7148 23.6413 13.125Z" fill="white"/>
</svg>
