<svg width="41" height="45" viewBox="0 0 41 45" fill="none" xmlns="http://www.w3.org/2000/svg">
<path d="M3.43898 25.2866L17.9189 42.7059C19.1859 44.1575 20.6641 44.8834 22.3534 44.8834C23.8617 44.8834 25.1589 44.4297 26.2449 43.5225L38.8243 32.9075C40.031 31.8188 40.7248 30.458 40.9058 28.8249C41.0868 27.3128 40.6343 25.8309 39.5483 24.3793L25.0684 6.95997C23.4997 4.90351 21.4484 3.60311 18.9144 3.05876L6.33497 0.15553C5.12831 -0.207373 3.98198 0.0648042 2.89599 0.972062L1.35749 2.33295C0.452498 2.99827 0 4.08698 0 5.59908L0.723996 18.5729C1.02566 21.1737 1.93066 23.4116 3.43898 25.2866ZM5.61097 3.87529L18.3714 6.95997C19.6987 7.26238 21.0261 8.07892 22.3534 9.40956L36.8333 26.8289C37.316 27.3128 37.4668 27.8571 37.2858 28.462C37.2858 28.8249 37.0143 29.339 36.4713 30.0043L23.8919 40.6192C23.4696 40.9821 22.9567 41.1485 22.3534 41.1182C21.7501 41.088 21.2976 40.8612 20.9959 40.4378L6.51597 23.0184C5.36964 21.5668 4.79648 20.085 4.79648 18.5729L3.89148 5.23618L5.61097 3.87529ZM10.7694 10.2261C10.7694 10.7704 10.5884 11.2241 10.2264 11.587C9.86445 11.9499 9.41195 12.1313 8.86896 12.1313C8.32596 12.1313 7.87346 11.9499 7.51146 11.587C7.14947 11.2241 6.96847 10.7704 6.96847 10.2261C6.96847 9.68174 7.14947 9.22811 7.51146 8.86521C7.87346 8.5023 8.32596 8.32085 8.86896 8.32085C9.41195 8.32085 9.86445 8.5023 10.2264 8.86521C10.5884 9.22811 10.7694 9.68174 10.7694 10.2261ZM11.7649 23.7442L29.5029 29.3692H30.1364C30.981 29.3692 31.6145 28.9156 32.0368 28.0084C32.2178 27.5245 32.1877 27.0406 31.9463 26.5567C31.705 26.0729 31.343 25.7402 30.8603 25.5588L13.1224 19.9338C12.6398 19.6918 12.142 19.6918 11.6292 19.9338C11.1164 20.1757 10.7694 20.5386 10.5884 21.0225C10.2264 22.4136 10.6186 23.3209 11.7649 23.7442ZM26.2449 32.4539C26.2449 33.2402 25.9734 33.9207 25.4304 34.4953C24.8874 35.0698 24.1935 35.3571 23.3489 35.3571C22.5042 35.3571 21.8104 35.0698 21.2674 34.4953C20.7244 33.9207 20.4529 33.2402 20.4529 32.4539C20.4529 31.6676 20.7395 30.9872 21.3126 30.4126C21.8858 29.838 22.5646 29.5507 23.3489 29.5507C24.1332 29.5507 24.812 29.838 25.3851 30.4126C25.9583 30.9872 26.2449 31.6676 26.2449 32.4539ZM20.4529 17.0305C20.4529 17.8168 20.1663 18.4973 19.5932 19.0719C19.02 19.6465 18.3412 19.9338 17.5569 19.9338C16.7726 19.9338 16.0938 19.6465 15.5207 19.0719C14.9475 18.4973 14.6609 17.8168 14.6609 17.0305C14.6609 16.2442 14.9324 15.5638 15.4754 14.9892C16.0184 14.4146 16.7123 14.1273 17.5569 14.1273C18.4016 14.1273 19.0954 14.4146 19.6384 14.9892C20.1814 15.5638 20.4529 16.2442 20.4529 17.0305Z" fill="white"/>
</svg>
